<svg width="177" height="56" viewBox="0 0 177 56" fill="none" xmlns="http://www.w3.org/2000/svg">
<g id="Airbnb logo 1" clip-path="url(#clip0_1329_68772)">
<path id="Vector" d="M93.2827 14.6848C93.2827 16.6669 91.679 18.263 89.6888 18.263C87.6986 18.263 86.096 16.6669 86.096 14.6848C86.096 12.7026 87.6439 11.1065 89.6888 11.1065C91.7354 11.1615 93.2827 12.7581 93.2827 14.6848ZM78.4675 21.8973V22.7784C78.4675 22.7784 76.7545 20.5751 73.1059 20.5751C67.0811 20.5751 62.3816 25.145 62.3816 31.4759C62.3816 37.7524 67.0259 42.3767 73.1059 42.3767C76.8097 42.3767 78.4675 40.1195 78.4675 40.1195V41.0551C78.4675 41.4956 78.7999 41.8251 79.2417 41.8251H83.7187V21.124H79.2417C78.7999 21.1257 78.4675 21.5118 78.4675 21.8973ZM78.4675 35.1647C77.6392 36.3763 75.9803 37.4224 73.9906 37.4224C70.453 37.4224 67.7438 35.2202 67.7438 31.4759C67.7438 27.7321 70.453 25.53 73.9906 25.53C75.9256 25.53 77.6944 26.6311 78.4675 27.7871V35.1647ZM87.0359 21.1257H92.3423V41.8267H87.0359V21.1257ZM166.306 20.5746C162.657 20.5746 160.943 22.7778 160.943 22.7778V11.1615H155.637V41.8267H160.115C160.557 41.8267 160.888 41.4412 160.888 41.0556V40.1201C160.888 40.1201 162.602 42.3773 166.249 42.3773C172.275 42.3773 176.974 37.754 176.974 31.4776C176.974 25.2011 172.275 20.5746 166.306 20.5746ZM165.421 37.3668C163.375 37.3668 161.772 36.3219 160.943 35.1097V27.7321C161.772 26.6311 163.541 25.475 165.421 25.475C168.959 25.475 171.667 27.6771 171.667 31.4209C171.667 35.1647 168.959 37.3668 165.421 37.3668ZM152.873 29.5499V41.8817H147.566V30.1548C147.566 26.7422 146.46 25.365 143.477 25.365C141.874 25.365 140.216 26.1911 139.164 27.4027V41.8273H133.858V21.1262H138.058C138.5 21.1262 138.832 21.5118 138.832 21.8973V22.7784C140.38 21.1812 142.425 20.5751 144.47 20.5751C146.792 20.5751 148.727 21.2368 150.275 22.5578C152.154 24.0995 152.873 26.0811 152.873 29.5499ZM120.976 20.5746C117.329 20.5746 115.615 22.7778 115.615 22.7778V11.1615H110.308V41.8267H114.785C115.228 41.8267 115.56 41.4412 115.56 41.0556V40.1201C115.56 40.1201 117.274 42.3773 120.921 42.3773C126.947 42.3773 131.646 37.754 131.646 31.4776C131.701 25.2005 127.002 20.5746 120.976 20.5746ZM120.092 37.3668C118.047 37.3668 116.444 36.3219 115.615 35.1097V27.7321C116.444 26.6311 118.213 25.475 120.092 25.475C123.63 25.475 126.339 27.6771 126.339 31.4209C126.339 35.1647 123.63 37.3668 120.092 37.3668ZM105.72 20.5746C107.323 20.5746 108.152 20.8507 108.152 20.8507V25.75C108.152 25.75 103.73 24.2634 100.966 27.4021V41.8811H95.659V21.1257H100.137C100.579 21.1257 100.91 21.5112 100.91 21.8968V22.7778C101.906 21.6212 104.062 20.5746 105.72 20.5746ZM50.6081 39.9546C50.332 39.294 50.0553 38.5785 49.7792 37.9724C49.3363 36.9819 48.894 36.0452 48.508 35.1647L48.4528 35.1097C44.638 26.8511 40.5481 18.4835 36.2358 10.226L36.0701 9.89489C35.6166 9.03827 35.1746 8.17563 34.7442 7.3072C34.1909 6.31557 33.6387 5.27059 32.754 4.27896C30.9852 2.0768 28.4422 0.865173 25.7341 0.865173C22.9696 0.865173 20.4824 2.07681 18.6589 4.16841C17.8295 5.15894 17.2209 6.20503 16.6687 7.19666C16.2372 8.06454 15.7952 8.92717 15.3428 9.78435L15.1765 10.1154C10.92 18.373 6.77438 26.7411 2.96013 34.9991L2.90437 35.1086C2.51781 35.9908 2.07491 36.9263 1.63258 37.9163C1.35646 38.5224 1.08035 39.1829 0.804235 39.8984C0.0852325 41.9351 -0.136222 43.8622 0.140997 45.8449C0.749001 49.9743 3.51236 53.4414 7.32715 54.9841C8.7646 55.5902 10.2573 55.8652 11.8046 55.8652C12.247 55.8652 12.7992 55.8102 13.2421 55.7546C15.0667 55.5346 16.9459 54.9296 18.7705 53.8836C21.0368 52.6169 23.1927 50.8009 25.6247 48.1582C28.0567 50.8009 30.2679 52.6169 32.479 53.8836C34.3041 54.9296 36.1828 55.5346 38.0068 55.7546C38.4491 55.8107 39.0025 55.8652 39.4448 55.8652C40.9927 55.8652 42.5401 55.5902 43.9217 54.9841C47.7917 53.4414 50.4999 49.9193 51.1084 45.8449C51.5474 43.9183 51.3265 41.9923 50.6081 39.9546ZM25.6783 42.8172C22.6929 39.0735 20.7579 35.5502 20.0952 32.5781C19.8191 31.3115 19.7634 30.2104 19.9296 29.2193C20.0395 28.3382 20.3719 27.5671 20.8142 26.9066C21.8646 25.4211 23.6334 24.4845 25.6788 24.4845C27.7248 24.4845 29.5489 25.3655 30.544 26.9066C30.9863 27.5671 31.3176 28.3388 31.4292 29.2193C31.5943 30.2109 31.5391 31.3665 31.263 32.5781C30.5975 35.4952 28.6625 39.019 25.6783 42.8172ZM47.7332 45.4049C47.3466 48.2676 45.4116 50.7459 42.7035 51.8469C41.377 52.3969 39.939 52.5625 38.5027 52.3969C37.121 52.2314 35.7382 51.7909 34.3019 50.9659C32.3117 49.8637 30.322 48.1582 27.9999 45.6249C31.6479 41.1662 33.859 37.0913 34.6885 33.4586C35.0756 31.7515 35.1313 30.2104 34.9646 28.7782C34.7442 27.4021 34.2461 26.1355 33.4724 25.0344C31.7578 22.5562 28.8829 21.1257 25.6777 21.1257C22.4726 21.1257 19.5977 22.6123 17.8841 25.0344C17.1104 26.1355 16.6123 27.4021 16.3914 28.7782C16.1705 30.2104 16.2252 31.8065 16.6676 33.4586C17.4965 37.0913 19.7628 41.2206 23.3556 45.6799C21.0893 48.2126 19.0438 49.9198 17.0536 51.0209C15.6161 51.847 14.235 52.2875 12.8533 52.452C11.3612 52.6175 9.92319 52.397 8.65196 51.902C5.94383 50.8009 4.00882 48.3226 3.62226 45.4599C3.45659 44.0839 3.56648 42.7078 4.11982 41.1662C4.28493 40.6151 4.56215 40.0651 4.83826 39.4046C5.22538 38.5235 5.66661 37.5868 6.1095 36.6513L6.16528 36.5419C9.97897 28.3382 14.0693 19.9701 18.3259 11.8226L18.4916 11.4915C18.9345 10.6665 19.3768 9.78545 19.8186 8.95937C20.2609 8.07828 20.7579 7.2522 21.3665 6.53611C22.5273 5.21614 24.0746 4.4995 25.7887 4.4995C27.5028 4.4995 29.0502 5.21614 30.211 6.53611C30.8195 7.25385 31.3165 8.07993 31.7589 8.95937C32.2018 9.78545 32.6441 10.6665 33.0853 11.4915L33.2515 11.8226C37.4432 20.004 41.4793 28.2636 45.3575 36.5969V36.6519C45.8004 37.5341 46.187 38.524 46.6293 39.4062C46.9054 40.0656 47.1821 40.6157 47.3477 41.1667C47.789 42.5967 47.9546 43.9739 47.7332 45.4049Z" fill="white" fill-opacity="0.65"/>
</g>
<defs>
<clipPath id="clip0_1329_68772">
<rect width="177" height="55" fill="white" transform="translate(0 0.865723)"/>
</clipPath>
</defs>
</svg>
