<svg width="147" height="45" viewBox="0 0 147 45" fill="none" xmlns="http://www.w3.org/2000/svg">
<g id="Amazon-Logo 1" clip-path="url(#clip0_732_30894)">
<path id="Vector" fill-rule="evenodd" clip-rule="evenodd" d="M91.173 34.9549C82.6339 41.2444 70.2385 44.5957 59.5877 44.5957C45.356 44.6416 31.5833 39.408 21.0243 29.859C20.1979 29.1704 20.9325 28.1604 21.8966 28.7113C33.6492 35.414 46.9628 38.9489 60.5059 38.9489C70.6058 38.903 80.6139 36.8371 89.9334 32.9349C91.4025 32.3381 92.5961 33.899 91.173 34.9549Z" fill="white" fill-opacity="0.65"/>
<path id="Vector_2" fill-rule="evenodd" clip-rule="evenodd" d="M94.7563 30.8689C93.6545 29.4916 87.5486 30.2262 84.7941 30.5475C83.9678 30.6393 83.83 29.9048 84.5646 29.3998C89.4309 25.9566 97.465 26.9666 98.3831 28.1144C99.3013 29.2621 98.1536 37.2961 93.5627 41.1525C92.8741 41.7493 92.1854 41.4279 92.5068 40.6475C93.5168 38.0307 95.8581 32.2921 94.7563 30.8689Z" fill="white" fill-opacity="0.65"/>
<path id="Vector_3" fill-rule="evenodd" clip-rule="evenodd" d="M84.9768 5.11684V1.8114C84.9768 1.35232 85.3441 0.985046 85.8031 0.985046H85.8491H100.815C101.274 0.985046 101.642 1.30641 101.688 1.7655V1.8114V4.65775C101.688 5.11684 101.274 5.75956 100.54 6.76956L92.8272 17.8336C95.7194 17.7418 98.7494 18.2008 101.366 19.6699C101.825 19.9454 102.147 20.4504 102.147 20.9554V24.5363C102.147 25.0413 101.596 25.5922 101.045 25.3167C96.0867 22.7458 90.2104 22.7917 85.2522 25.3626C84.7472 25.6381 84.1963 25.0872 84.1963 24.5822V21.1849C84.1504 20.3586 84.3341 19.5781 84.7473 18.8895L93.6995 6.03501H85.895C85.4359 6.08092 85.0227 5.71365 85.0227 5.25457C84.9768 5.20866 84.9768 5.16275 84.9768 5.11684Z" fill="white" fill-opacity="0.65"/>
<path id="Vector_4" fill-rule="evenodd" clip-rule="evenodd" d="M30.4377 25.9565H25.8928C25.4796 25.9565 25.1123 25.5892 25.0664 25.176V1.85437C25.0664 1.39528 25.4796 0.982098 25.9387 1.02801H30.1623C30.5755 1.02801 30.9427 1.39528 30.9886 1.80846V4.83844H31.0805C32.1823 1.90027 34.2482 0.52301 37.0486 0.52301C39.849 0.52301 41.6854 1.90027 42.9708 4.83844C44.3022 1.34937 48.2044 -0.349257 51.6476 0.982098C52.7953 1.39528 53.7594 2.12982 54.5399 3.0939C55.963 5.06798 55.6876 7.91433 55.6876 10.4393V25.176C55.6876 25.6351 55.2744 26.0024 54.8153 26.0024H50.2703C49.8112 26.0024 49.444 25.6351 49.444 25.176V12.7807C49.444 11.8166 49.5358 9.3375 49.3063 8.41933C48.9849 6.85843 47.929 6.39934 46.6435 6.39934C45.4499 6.44525 44.3481 7.17979 43.9349 8.32751C43.4758 9.52114 43.5217 11.4493 43.5217 12.7807V25.176C43.5217 25.6351 43.1086 26.0483 42.6495 26.0024H38.1045C37.6454 26.0024 37.2781 25.6351 37.2781 25.176V12.7807C37.2781 10.1639 37.6913 6.35343 34.4777 6.35343C31.2641 6.35343 31.3559 10.072 31.3559 12.7807V25.176C31.2641 25.5892 30.8968 25.9565 30.4377 25.9565Z" fill="white" fill-opacity="0.65"/>
<path id="Vector_5" fill-rule="evenodd" clip-rule="evenodd" d="M114.494 0.52301C121.242 0.52301 124.915 6.30752 124.915 13.6988C124.915 20.8147 120.875 26.4615 114.494 26.4615C107.883 26.4615 104.256 20.677 104.256 13.4234C104.256 6.16979 107.929 0.52301 114.494 0.52301ZM114.539 5.29753C111.188 5.29753 110.959 9.88841 110.959 12.7348C110.959 15.5811 110.913 21.687 114.494 21.687C118.074 21.687 118.166 16.7747 118.166 13.7907C118.166 11.8166 118.074 9.47523 117.478 7.59297C117.018 5.94025 116.008 5.29753 114.539 5.29753Z" fill="white" fill-opacity="0.65"/>
<path id="Vector_6" fill-rule="evenodd" clip-rule="evenodd" d="M133.686 25.9581H129.141C128.682 25.9581 128.314 25.5908 128.314 25.1317V1.76415C128.36 1.30506 128.728 0.983696 129.187 0.983696H133.41C133.778 0.983696 134.145 1.25915 134.237 1.62642V5.20731H134.329C135.614 1.99369 137.404 0.478699 140.526 0.478699C142.546 0.478699 144.566 1.21324 145.852 3.23323C147.045 5.11549 147.045 8.23729 147.045 10.4868V25.1776C146.999 25.5908 146.586 25.9122 146.173 25.9122H141.628C141.215 25.9122 140.893 25.5908 140.802 25.1776V12.5527C140.802 9.98182 141.077 6.26321 137.955 6.26321C136.808 6.30912 135.752 7.04366 135.338 8.14547C134.696 9.56864 134.604 10.9918 134.604 12.5527V25.1317C134.558 25.5908 134.145 25.9581 133.686 25.9581Z" fill="white" fill-opacity="0.65"/>
<path id="Vector_7" fill-rule="evenodd" clip-rule="evenodd" d="M73.0403 14.8023C73.0403 16.5927 73.0863 18.0618 72.1681 19.6227C71.4335 20.9082 70.2858 21.6886 69.0004 21.6886C67.2558 21.6886 66.2458 20.3573 66.2458 18.3832C66.2458 14.5268 69.7349 13.7923 72.9944 13.7923L73.0403 14.8023ZM77.6312 25.9122C77.3558 26.1877 76.8967 26.2336 76.5753 26.004C75.0603 24.7645 74.7849 24.1677 73.9585 22.9741C71.4794 25.499 69.689 26.2795 66.4754 26.2795C62.665 26.2795 59.6809 23.8922 59.6809 19.2095C59.5891 15.95 61.5172 12.9659 64.5472 11.7723C67.0263 10.6705 70.4694 10.4869 73.0863 10.2114V9.61459C73.0863 8.51278 73.1781 7.22733 72.5353 6.30916C71.9385 5.52871 70.9744 5.06962 69.9644 5.11553C68.2199 5.11553 66.7049 5.9878 66.2917 7.87006C66.2458 8.28324 65.9245 8.65051 65.5113 8.69642L61.1041 8.23733C60.645 8.19142 60.3695 7.77824 60.4154 7.31915V7.27324C61.4254 1.90191 66.2458 0.295105 70.6072 0.295105C72.8108 0.295105 75.7031 0.89192 77.4476 2.54464C79.6512 4.61053 79.4676 7.36506 79.4676 10.395V17.465C79.4676 19.6227 80.3399 20.5409 81.1662 21.6886C81.4417 22.1018 81.5335 22.6068 81.1662 22.8822C80.2021 23.6627 78.5494 25.1318 77.6312 25.9122Z" fill="white" fill-opacity="0.65"/>
<path id="Vector_8" fill-rule="evenodd" clip-rule="evenodd" d="M13.4007 14.8023C13.4007 16.5927 13.4466 18.0618 12.5743 19.6227C11.8398 20.9082 10.6921 21.6886 9.40663 21.6886C7.6621 21.6886 6.65211 20.3573 6.65211 18.3832C6.65211 14.5268 10.1412 13.7923 13.4007 13.7923V14.8023ZM17.9916 25.9122C17.7161 26.1877 17.257 26.2336 16.9357 26.004C15.4207 24.7645 15.1452 24.1677 14.3189 22.9741C11.8398 25.499 10.0494 26.2795 6.83574 26.2795C2.9794 26.2795 -0.00467149 23.9381 -0.00467149 19.2095C-0.0964891 15.95 1.83168 12.9659 4.86166 11.7723C7.34074 10.6705 10.7839 10.4869 13.4007 10.2114V9.61459C13.4007 8.51278 13.4925 7.22733 12.8498 6.30916C12.253 5.52871 11.2889 5.06962 10.2789 5.11553C8.53437 5.11553 7.01938 5.9878 6.6062 7.87006C6.56029 8.28324 6.23893 8.65051 5.82575 8.69642L1.4185 8.23733C0.959413 8.19142 0.683961 7.77824 0.729869 7.31915V7.27324C1.78577 1.90191 6.6062 0.295105 10.9216 0.295105C13.1712 0.295105 16.0634 0.89192 17.8079 2.54464C20.0116 4.61053 19.782 7.36506 19.782 10.395V17.465C19.782 19.6227 20.6543 20.5409 21.4807 21.6886C21.7561 22.1018 21.8479 22.6068 21.4807 22.8822C20.5625 23.6627 18.9098 25.1318 17.9916 25.9122Z" fill="white" fill-opacity="0.65"/>
</g>
<defs>
<clipPath id="clip0_732_30894">
<rect width="147" height="44.302" fill="white" transform="translate(0 0.295349)"/>
</clipPath>
</defs>
</svg>
