<?xml version="1.0" encoding="utf-8"?>
<!-- Generator: Adobe Illustrator 24.3.0, SVG Export Plug-In . SVG Version: 6.00 Build 0)  -->
<svg version="1.1" id="Layer_1" xmlns="http://www.w3.org/2000/svg" xmlns:xlink="http://www.w3.org/1999/xlink" x="0px" y="0px"
	 viewBox="0 0 160 160" style="enable-background:new 0 0 160 160;" xml:space="preserve">
<style type="text/css">
	.st0{fill:#F2FBFF;}
	.st1{fill:#10162F;}
	.st2{fill:#FFFFFF;filter:url(#Adobe_OpacityMaskFilter);stroke:#000000;}
	.st3{mask:url(#mask0_1_);}
	.st4{fill:#FFFFFF;}
</style>
<g>
	<path class="st0" d="M70.6,128.4H95c5.7,0,10.3,4.6,10.3,10.3v0c0,5.7-4.6,10.3-10.3,10.3H70.6c-5.7,0-10.3-4.6-10.3-10.3v0
		C60.4,133,65,128.4,70.6,128.4z"/>
	<path class="st1" d="M95,149.4H70.6c-5.9,0-10.8-4.8-10.8-10.8s4.8-10.8,10.8-10.8H95c5.9,0,10.8,4.8,10.8,10.8
		S100.9,149.4,95,149.4z M70.6,128.9c-5.4,0-9.8,4.4-9.8,9.8s4.4,9.8,9.8,9.8H95c5.4,0,9.8-4.4,9.8-9.8s-4.4-9.8-9.8-9.8H70.6z"/>
</g>
<g>
	<rect x="83.2" y="39.7" class="st1" width="1" height="15.7"/>
</g>
<g>
	<rect x="83.2" y="113.7" class="st1" width="1" height="15.7"/>
</g>
<g>
	<rect x="24" y="68.8" class="st1" width="32.4" height="1"/>
</g>
<g>
	<rect x="83.2" y="84.1" class="st1" width="1" height="15.7"/>
</g>
<g>
	<rect x="147.5" y="104.4" class="st1" width="1" height="31.4"/>
</g>
<g>
	<rect x="86" y="103.9" class="st1" width="62.4" height="1"/>
</g>
<g>
	<rect x="17.1" y="104.4" class="st1" width="1" height="31.4"/>
</g>
<g>
	<rect x="17.1" y="103.9" class="st1" width="62.4" height="1"/>
</g>
<g>
	<circle class="st0" cx="18" cy="139.1" r="12"/>
	<path class="st1" d="M18,151.6c-6.9,0-12.5-5.6-12.5-12.5s5.6-12.5,12.5-12.5s12.5,5.6,12.5,12.5S24.9,151.6,18,151.6z M18,127.6
		c-6.3,0-11.5,5.2-11.5,11.5c0,6.3,5.2,11.5,11.5,11.5s11.5-5.2,11.5-11.5C29.5,132.8,24.4,127.6,18,127.6z"/>
</g>
<g>
	<path class="st0" d="M45.3,95.7h75.8c4.8,0,8.7,3.9,8.7,8.7l0,0c0,4.8-3.9,8.7-8.7,8.7H45.3c-4.8,0-8.7-3.9-8.7-8.7l0,0
		C36.6,99.6,40.5,95.7,45.3,95.7z"/>
	<path class="st1" d="M121.2,113.7H45.3c-5.1,0-9.2-4.1-9.2-9.2s4.1-9.2,9.2-9.2h75.8c5.1,0,9.2,4.1,9.2,9.2
		S126.3,113.7,121.2,113.7z M45.3,96.2c-4.5,0-8.2,3.7-8.2,8.2c0,4.5,3.7,8.2,8.2,8.2h75.8c4.5,0,8.2-3.7,8.2-8.2
		c0-4.5-3.7-8.2-8.2-8.2H45.3z"/>
</g>
<g>
	<path class="st0" d="M64.7,23.5h37c4.8,0,8.7,3.9,8.7,8.7l0,0c0,4.8-3.9,8.7-8.7,8.7h-37c-4.8,0-8.7-3.9-8.7-8.7l0,0
		C56,27.5,59.9,23.5,64.7,23.5z"/>
	<path class="st1" d="M101.7,41.5h-37c-5.1,0-9.2-4.1-9.2-9.2s4.1-9.2,9.2-9.2h37c5.1,0,9.2,4.1,9.2,9.2S106.8,41.5,101.7,41.5z
		 M64.7,24c-4.5,0-8.2,3.7-8.2,8.2s3.7,8.2,8.2,8.2h37c4.5,0,8.2-3.7,8.2-8.2s-3.7-8.2-8.2-8.2H64.7z"/>
</g>
<g>
	<path class="st0" d="M54.5,69.1L83,53.8l28.5,15.3L83,84.4L54.5,69.1z"/>
	<path class="st1" d="M83,84.9L53.4,69.1L83,53.2l29.6,15.9L83,84.9z M55.5,69.1L83,83.8l27.5-14.7L83,54.3L55.5,69.1z"/>
</g>
<g>
	<circle class="st0" cx="12.5" cy="67" r="12"/>
	<path class="st1" d="M12.5,79.5C5.6,79.5,0,73.9,0,67c0-6.9,5.6-12.5,12.5-12.5C19.4,54.5,25,60.1,25,67
		C25,73.9,19.4,79.5,12.5,79.5z M12.5,55.5C6.2,55.5,1,60.6,1,67c0,6.3,5.2,11.5,11.5,11.5C18.8,78.5,24,73.3,24,67
		C24,60.6,18.8,55.5,12.5,55.5z"/>
</g>
<g>
	<circle class="st0" cx="147.5" cy="139.1" r="12"/>
	<path class="st1" d="M147.5,151.6c-6.9,0-12.5-5.6-12.5-12.5s5.6-12.5,12.5-12.5s12.5,5.6,12.5,12.5S154.4,151.6,147.5,151.6z
		 M147.5,127.6c-6.3,0-11.5,5.2-11.5,11.5c0,6.3,5.2,11.5,11.5,11.5c6.3,0,11.5-5.2,11.5-11.5C159,132.8,153.8,127.6,147.5,127.6z"
		/>
</g>
<g>
	
		<rect x="121.7" y="85.1" transform="matrix(0.7071 -0.7071 0.7071 0.7071 -36.0201 120.5286)" class="st1" width="11.5" height="37.4"/>
	<path class="st1" d="M136.6,121.7l-27.1-27.1l8.9-8.9l27.1,27.1L136.6,121.7z M110.9,94.6l25.7,25.7l7.5-7.5l-25.7-25.7L110.9,94.6
		z"/>
</g>
<g>
	<circle class="st0" cx="85.3" cy="57.8" r="48.3"/>
	<path class="st1" d="M85.3,106.6c-26.9,0-48.8-21.9-48.8-48.8S58.4,9,85.3,9c26.9,0,48.8,21.9,48.8,48.8S112.2,106.6,85.3,106.6z
		 M85.3,10c-26.4,0-47.8,21.4-47.8,47.8c0,26.4,21.4,47.8,47.8,47.8s47.8-21.4,47.8-47.8C133.1,31.4,111.6,10,85.3,10z"/>
</g>
<defs>
	<filter id="Adobe_OpacityMaskFilter" filterUnits="userSpaceOnUse" x="12.1" y="8.8" width="142.8" height="98.6">
		<feColorMatrix  type="matrix" values="1 0 0 0 0  0 1 0 0 0  0 0 1 0 0  0 0 0 1 0"/>
	</filter>
</defs>
<mask maskUnits="userSpaceOnUse" x="12.1" y="8.8" width="142.8" height="98.6" id="mask0_1_">
	<circle class="st2" cx="85.3" cy="57.8" r="48.3"/>
</mask>
<g class="st3">
	<g>
		<rect x="84" y="26.9" class="st1" width="1" height="17.1"/>
	</g>
	<g>
		<rect x="19.7" y="58.5" class="st1" width="35.2" height="1"/>
	</g>
	<g>
		<rect x="84" y="75.1" class="st1" width="1" height="17.1"/>
	</g>
	<g>
		<rect x="87.1" y="96.8" class="st1" width="67.9" height="1"/>
	</g>
	<g>
		<rect x="12.1" y="96.8" class="st1" width="67.9" height="1"/>
	</g>
	<g>
		<path class="st4" d="M42.8,87.7h82.5c5.3,0,9.6,4.3,9.6,9.6v0c0,5.3-4.3,9.6-9.6,9.6H42.8c-5.3,0-9.6-4.3-9.6-9.6v0
			C33.3,92,37.5,87.7,42.8,87.7z"/>
		<path class="st1" d="M125.3,107.3H42.8c-5.5,0-10.1-4.5-10.1-10.1s4.5-10.1,10.1-10.1h82.5c5.5,0,10.1,4.5,10.1,10.1
			S130.8,107.3,125.3,107.3z M42.8,88.2c-5,0-9.1,4.1-9.1,9.1s4.1,9.1,9.1,9.1h82.5c5,0,9.1-4.1,9.1-9.1s-4.1-9.1-9.1-9.1H42.8z"/>
	</g>
	<g>
		<path class="st4" d="M63.9,9.3h40.2c5.3,0,9.6,4.3,9.6,9.6l0,0c0,5.3-4.3,9.6-9.6,9.6H63.9c-5.3,0-9.6-4.3-9.6-9.6l0,0
			C54.4,13.5,58.6,9.3,63.9,9.3z"/>
		<path class="st1" d="M104.2,28.9H63.9c-5.5,0-10.1-4.5-10.1-10.1S58.4,8.8,63.9,8.8h40.2c5.5,0,10.1,4.5,10.1,10.1
			S109.7,28.9,104.2,28.9z M63.9,9.8c-5,0-9.1,4.1-9.1,9.1s4.1,9.1,9.1,9.1h40.2c5,0,9.1-4.1,9.1-9.1s-4.1-9.1-9.1-9.1H63.9z"/>
	</g>
	<g>
		<path class="st4" d="M52.7,58.8l31.1-16.7l31.1,16.7L83.8,75.5L52.7,58.8z"/>
		<path class="st1" d="M83.8,76.1L51.6,58.8l32.2-17.2l32.2,17.2L83.8,76.1z M53.7,58.8l30,16.1l30-16.1l-30-16.1L53.7,58.8z"/>
	</g>
</g>
<g>
	<path class="st1" d="M85.3,106.6c-26.9,0-48.8-21.9-48.8-48.8S58.4,9,85.3,9c26.9,0,48.8,21.9,48.8,48.8S112.2,106.6,85.3,106.6z
		 M85.3,10c-26.4,0-47.8,21.4-47.8,47.8c0,26.4,21.4,47.8,47.8,47.8s47.8-21.4,47.8-47.8C133.1,31.4,111.6,10,85.3,10z"/>
</g>
</svg>
