<?xml version="1.0" encoding="UTF-8"?><svg id="a" xmlns="http://www.w3.org/2000/svg" xmlns:xlink="http://www.w3.org/1999/xlink" viewBox="0 0 200 200"><defs><style>.d{fill:none;}.e{fill:#f5fcff;}.f{fill:#fff;}.g{fill:#111730;}.h{fill:#10172f;}.i{fill:#231f20;}.j{fill:#0f172f;}.k{clip-path:url(#c);}</style><clipPath id="c"><path class="d" d="M64.02,46.83c0-12.49-10.12-22.61-22.61-22.61v22.61h22.61Z"/></clipPath></defs><rect class="g" x="65.11" y="65.18" width="82.79" height="82.79" rx="3.31" ry="3.31"/><g><rect class="e" x="71.11" y="59.18" width="82.79" height="82.79" rx="3.31" ry="3.31"/><path class="g" d="M150.58,142.46H74.42c-2.1,0-3.81-1.71-3.81-3.81V62.49c0-2.1,1.71-3.81,3.81-3.81h76.16c2.1,0,3.81,1.71,3.81,3.81v76.16c0,2.1-1.71,3.81-3.81,3.81ZM74.42,59.68c-1.55,0-2.81,1.26-2.81,2.81v76.16c0,1.55,1.26,2.81,2.81,2.81h76.16c1.55,0,2.81-1.26,2.81-2.81V62.49c0-1.55-1.26-2.81-2.81-2.81H74.42Z"/></g><circle class="j" cx="89.74" cy="77.63" r="6.71"/><rect class="j" x="104.17" y="76.4" width="35.8" height="1"/><circle class="j" cx="133.25" cy="100.43" r="6.71"/><rect class="j" x="83.02" y="99.2" width="35.8" height="1"/><circle class="j" cx="89.74" cy="123.24" r="6.71"/><rect class="j" x="104.17" y="122" width="35.8" height="1"/><g><g><rect class="f" x="165.96" y="60.2" width="22.25" height="120.14"/><path class="h" d="M188.71,180.83h-23.25V59.7h23.25v121.14Zm-22.25-1h21.25V60.7h-21.25v119.14Z"/></g><rect class="j" x="176.93" y="76.11" width="10.99" height="1"/><rect class="j" x="176.93" y="119.61" width="10.99" height="1"/><rect class="j" x="180.52" y="85.37" width="7.4" height="1"/><rect class="j" x="180.52" y="94.01" width="7.4" height="1"/><rect class="j" x="180.52" y="102.65" width="7.4" height="1"/><rect class="j" x="180.52" y="111.28" width="7.4" height="1"/><rect class="j" x="180.52" y="128.87" width="7.4" height="1"/><rect class="j" x="180.52" y="137.51" width="7.4" height="1"/><rect class="j" x="180.52" y="146.15" width="7.4" height="1"/><rect class="j" x="180.52" y="154.79" width="7.4" height="1"/></g><g id="b"><g><g><path class="e" d="M143.48,181.54l.05,1.01v8.15c0,.62,0,1.25,0,1.87,.02,1.03-.4,1.64-.76,1.96-.54,.49-1.12,1-1.77,1.38-1.92,1.13-3.98,1.71-5.75,2.13-3.9,.93-8.17,1.39-13.02,1.39-.44,0-.88,0-1.32-.01-4.39-.07-8.24-.52-11.78-1.38-1.76-.42-3.81-1.01-5.72-2.11-.65-.38-1.23-.86-1.72-1.29-.58-.51-.88-1.24-.87-2.15,.01-2.35,.01-4.71,0-7.06v-3.65"/><path class="i" d="M122.23,199.94c-.44,0-.88,0-1.33,0-4.42-.07-8.31-.53-11.89-1.39-1.8-.43-3.9-1.03-5.85-2.16-.7-.4-1.3-.91-1.8-1.35-.7-.61-1.05-1.46-1.04-2.53,.01-2.27,.01-4.55,0-6.82v-3.88h1v3.88c0,2.28,0,4.55,0,6.83,0,.77,.23,1.35,.7,1.77,.46,.41,1.02,.87,1.64,1.23,1.85,1.07,3.86,1.64,5.59,2.06,3.51,.84,7.33,1.29,11.67,1.36,5.34,.08,10.01-.36,14.22-1.37,1.74-.42,3.76-.99,5.62-2.08,.62-.37,1.17-.85,1.69-1.32,.28-.26,.61-.74,.6-1.58-.01-.59,0-1.18,0-1.77v-8.27l-.05-.98,1-.05,.05,1.01v8.3c0,.58,0,1.17,0,1.75,.02,1.22-.49,1.95-.93,2.34-.56,.5-1.16,1.03-1.85,1.44-1.97,1.16-4.08,1.76-5.89,2.19-3.94,.94-8.24,1.4-13.14,1.4Z"/></g><g><path class="e" d="M143.54,169.49v4.85c0,2.3,0,4.59,0,6.89,0,.82-.25,1.48-.76,1.96-.42,.4-.93,.86-1.5,1.22-1.72,1.07-3.61,1.66-5.24,2.09-2.72,.73-5.73,1.2-9.2,1.44-1.58,.11-3.16,.16-4.72,.16s-3.22-.06-4.79-.17c-3.24-.24-7.48-.71-11.57-2.25-.87-.33-1.7-.76-2.5-1.19l-.33-.18c-.42-.22-.77-.54-1.07-.81-.72-.66-1.06-1.46-1.06-2.42,.02-2.35,.02-4.7,.01-7.05v-4.42"/><path class="i" d="M122.13,188.61c-1.62,0-3.25-.06-4.83-.18-3.28-.24-7.57-.72-11.71-2.28-.92-.34-1.79-.81-2.55-1.22l-.33-.17c-.48-.25-.87-.61-1.17-.89-.81-.74-1.23-1.68-1.22-2.79,.02-2.35,.02-4.7,.01-7.05v-4.43h1v4.42c0,2.35,0,4.7-.01,7.06,0,.83,.29,1.5,.89,2.05,.28,.26,.6,.55,.97,.74l.33,.18c.74,.4,1.58,.84,2.44,1.16,4.02,1.51,8.22,1.98,11.43,2.22,3.06,.23,6.25,.23,9.44,.01,3.43-.23,6.41-.7,9.1-1.42,1.59-.42,3.44-1,5.1-2.03,.53-.33,1.02-.77,1.42-1.16,.4-.38,.6-.92,.6-1.6,0-1.88,0-3.76,0-5.64v-6.11h1v6.11c0,1.88,0,3.76,0,5.63,0,.96-.3,1.74-.91,2.32-.44,.42-.97,.9-1.58,1.28-1.77,1.11-3.71,1.71-5.37,2.15-2.76,.74-5.79,1.21-9.29,1.45-1.59,.11-3.19,.16-4.75,.16Z"/></g><g><path class="e" d="M143.54,158.04v4.63c0,2.31,0,4.61,0,6.92,0,.87-.28,1.58-.87,2.19-.81,.83-1.76,1.34-2.58,1.73-1.9,.89-4.05,1.55-6.79,2.07-3.48,.66-7.08,.98-10.91,.98-1.67,0-3.38-.06-5.14-.18-4.09-.28-7.44-.89-10.53-1.89-1.24-.41-2.69-.94-3.98-1.84-.5-.34-.94-.77-1.26-1.11-.45-.46-.68-1.08-.67-1.83,0-2.53,0-5.05,0-7.58v-4.25"/><path class="i" d="M122.4,177.06c-1.67,0-3.41-.06-5.17-.19-4.13-.29-7.51-.9-10.65-1.92-1.28-.42-2.76-.97-4.11-1.9-.52-.36-.97-.79-1.33-1.17-.54-.56-.82-1.29-.81-2.18,0-2.53,0-5.05,0-7.58v-4.25h1v4.25c0,2.53,0,5.06,0,7.58,0,.62,.18,1.11,.53,1.48,.33,.34,.73,.73,1.18,1.04,1.24,.86,2.65,1.38,3.85,1.77,3.06,.99,6.36,1.59,10.41,1.87,5.77,.4,10.94,.15,15.92-.79,2.69-.51,4.81-1.15,6.67-2.03,.78-.36,1.67-.84,2.44-1.62,.5-.52,.74-1.1,.73-1.84-.01-2.31-.01-4.62,0-6.92v-4.63h1v4.63c0,2.31,0,4.61,0,6.92,0,1-.33,1.83-1.01,2.54-.87,.9-1.87,1.43-2.73,1.83-1.94,.91-4.13,1.58-6.9,2.11-3.54,.67-7.14,.99-11,.99Z"/></g><g><path class="e" d="M122.38,164.68c-1.82,0-3.69-.07-5.61-.21-3.7-.27-6.75-.77-9.6-1.59-1.25-.36-2.57-.79-3.78-1.52-.71-.42-1.28-.87-1.74-1.36-1.13-1.19-1.13-2.7-.01-3.96,.79-.89,1.77-1.41,2.62-1.8,2.23-1.02,4.56-1.54,6.35-1.87,3.53-.66,7.3-.97,11.86-.99h0c4.57,.02,8.59,.41,12.29,1.19,1.83,.39,3.78,.88,5.63,1.82,.8,.41,1.49,.88,2.06,1.39,.89,.81,1.09,1.63,1.1,2.18,.02,.81-.35,1.6-1.06,2.3-.89,.88-1.93,1.38-2.93,1.79-1.89,.78-3.94,1.33-6.65,1.78-3.39,.56-6.87,.84-10.53,.84Z"/><path class="i" d="M122.38,165.18c-1.8,0-3.7-.07-5.65-.21-3.73-.27-6.82-.78-9.7-1.61-1.28-.37-2.64-.82-3.9-1.58-.74-.45-1.35-.92-1.84-1.44-1.3-1.37-1.31-3.19-.02-4.64,.85-.96,1.89-1.51,2.79-1.92,2.28-1.04,4.65-1.57,6.46-1.91,3.55-.67,7.35-.98,11.95-.99,4.6,.02,8.66,.41,12.4,1.2,1.87,.4,3.86,.9,5.75,1.87,.84,.43,1.57,.92,2.16,1.46,1.02,.93,1.25,1.89,1.26,2.54,.02,.95-.4,1.87-1.21,2.67-.95,.94-2.04,1.47-3.08,1.9-1.93,.8-4.01,1.36-6.76,1.81-3.45,.57-6.92,.85-10.61,.85Zm.09-13.3c-4.54,.01-8.28,.32-11.77,.98-1.76,.33-4.05,.83-6.23,1.83-.81,.37-1.73,.86-2.46,1.68-.94,1.06-.95,2.29,0,3.29,.43,.46,.97,.87,1.63,1.27,1.16,.7,2.44,1.12,3.66,1.47,2.82,.81,5.83,1.3,9.5,1.57,5.84,.42,10.96,.21,16.02-.63,2.67-.44,4.68-.98,6.54-1.75,.95-.39,1.94-.87,2.77-1.69,.61-.6,.93-1.27,.92-1.93,0-.45-.18-1.13-.94-1.82-.53-.48-1.19-.92-1.95-1.31-1.79-.92-3.7-1.4-5.5-1.78-3.67-.78-7.66-1.16-12.19-1.18Z"/></g></g></g><g><g><g><rect class="f" x="86.79" y="28.41" width="12.67" height="20.22"/><path class="h" d="M99.96,49.13h-13.67V27.91h13.67v21.22Zm-12.67-1h11.67V28.91h-11.67v19.22Z"/></g><g><rect class="e" x="105.3" y=".57" width="12.67" height="48.05"/><path class="h" d="M118.47,49.13h-13.67V.07h13.67V49.13Zm-12.67-1h11.67V1.07h-11.67V48.13Z"/></g><g><rect class="f" x="123.73" y="19.13" width="12.67" height="29.49"/><path class="h" d="M136.9,49.13h-13.67V18.63h13.67v30.5Zm-12.67-1h11.67V19.63h-11.67v28.5Z"/></g></g><rect class="g" x="76.06" y="48.13" width="70.1" height="1"/></g><g><g><rect class="f" x="43.83" y="141.59" width="16.02" height="16.02"/><path class="h" d="M60.35,158.11h-17.02v-17.02h17.02v17.02Zm-16.02-1h15.02v-15.02h-15.02v15.02Z"/></g><g><rect class="f" x="27.81" y="141.59" width="16.02" height="16.02"/><path class="h" d="M44.33,158.11H27.31v-17.02h17.02v17.02Zm-16.02-1h15.02v-15.02h-15.02v15.02Z"/></g><g><rect class="f" x="11.79" y="141.59" width="16.02" height="16.02"/><path class="h" d="M28.31,158.11H11.29v-17.02H28.31v17.02Zm-16.02-1h15.02v-15.02H12.29v15.02Z"/></g><g><rect class="f" x="43.83" y="125.57" width="16.02" height="16.02"/><path class="h" d="M60.35,142.09h-17.02v-17.02h17.02v17.02Zm-16.02-1h15.02v-15.02h-15.02v15.02Z"/></g><g><rect class="f" x="27.81" y="125.57" width="16.02" height="16.02"/><path class="h" d="M44.33,142.09H27.31v-17.02h17.02v17.02Zm-16.02-1h15.02v-15.02h-15.02v15.02Z"/></g><g><rect class="f" x="43.83" y="109.55" width="16.02" height="16.02"/><path class="h" d="M60.35,126.07h-17.02v-17.02h17.02v17.02Zm-16.02-1h15.02v-15.02h-15.02v15.02Z"/></g></g><g><g><g class="k"><g><rect class="d" x="62.91" y="23.13" width="4" height="4"/><rect class="h" x="62.91" y="23.13" width="1" height="1"/><rect class="h" x="64.91" y="25.13" width="1" height="1"/></g><g><rect class="d" x="62.91" y="27.13" width="4" height="4"/><rect class="h" x="62.91" y="27.13" width="1" height="1"/><rect class="h" x="64.91" y="29.13" width="1" height="1"/></g><g><rect class="d" x="62.91" y="31.13" width="4" height="4"/><rect class="h" x="62.91" y="31.13" width="1" height="1"/><rect class="h" x="64.91" y="33.13" width="1" height="1"/></g><g><rect class="d" x="62.91" y="35.13" width="4" height="4"/><rect class="h" x="62.91" y="35.13" width="1" height="1"/><rect class="h" x="64.91" y="37.13" width="1" height="1"/></g><g><rect class="d" x="62.91" y="39.13" width="4" height="4"/><rect class="h" x="62.91" y="39.13" width="1" height="1"/><rect class="h" x="64.91" y="41.13" width="1" height="1"/></g><g><rect class="d" x="62.91" y="43.13" width="4" height="4"/><rect class="h" x="62.91" y="43.13" width="1" height="1"/><rect class="h" x="64.91" y="45.13" width="1" height="1"/></g><g><rect class="d" x="58.91" y="23.13" width="4" height="4"/><rect class="h" x="58.91" y="23.13" width="1" height="1"/><rect class="h" x="60.91" y="25.13" width="1" height="1"/></g><g><rect class="d" x="58.91" y="27.13" width="4" height="4"/><rect class="h" x="58.91" y="27.13" width="1" height="1"/><rect class="h" x="60.91" y="29.13" width="1" height="1"/></g><g><rect class="d" x="58.91" y="31.13" width="4" height="4"/><rect class="h" x="58.91" y="31.13" width="1" height="1"/><rect class="h" x="60.91" y="33.13" width="1" height="1"/></g><g><rect class="d" x="58.91" y="35.13" width="4" height="4"/><rect class="h" x="58.91" y="35.13" width="1" height="1"/><rect class="h" x="60.91" y="37.13" width="1" height="1"/></g><g><rect class="d" x="58.91" y="39.13" width="4" height="4"/><rect class="h" x="58.91" y="39.13" width="1" height="1"/><rect class="h" x="60.91" y="41.13" width="1" height="1"/></g><g><rect class="d" x="58.91" y="43.13" width="4" height="4"/><rect class="h" x="58.91" y="43.13" width="1" height="1"/><rect class="h" x="60.91" y="45.13" width="1" height="1"/></g><g><rect class="d" x="54.91" y="23.13" width="4" height="4"/><rect class="h" x="54.91" y="23.13" width="1" height="1"/><rect class="h" x="56.91" y="25.13" width="1" height="1"/></g><g><rect class="d" x="54.91" y="27.13" width="4" height="4"/><rect class="h" x="54.91" y="27.13" width="1" height="1"/><rect class="h" x="56.91" y="29.13" width="1" height="1"/></g><g><rect class="d" x="54.91" y="31.13" width="4" height="4"/><rect class="h" x="54.91" y="31.13" width="1" height="1"/><rect class="h" x="56.91" y="33.13" width="1" height="1"/></g><g><rect class="d" x="54.91" y="35.13" width="4" height="4"/><rect class="h" x="54.91" y="35.13" width="1" height="1"/><rect class="h" x="56.91" y="37.13" width="1" height="1"/></g><g><rect class="d" x="54.91" y="39.13" width="4" height="4"/><rect class="h" x="54.91" y="39.13" width="1" height="1"/><rect class="h" x="56.91" y="41.13" width="1" height="1"/></g><g><rect class="d" x="54.91" y="43.13" width="4" height="4"/><rect class="h" x="54.91" y="43.13" width="1" height="1"/><rect class="h" x="56.91" y="45.13" width="1" height="1"/></g><g><rect class="d" x="50.91" y="23.13" width="4" height="4"/><rect class="h" x="50.91" y="23.13" width="1" height="1"/><rect class="h" x="52.91" y="25.13" width="1" height="1"/></g><g><rect class="d" x="50.91" y="27.13" width="4" height="4"/><rect class="h" x="50.91" y="27.13" width="1" height="1"/><rect class="h" x="52.91" y="29.13" width="1" height="1"/></g><g><rect class="d" x="50.91" y="31.13" width="4" height="4"/><rect class="h" x="50.91" y="31.13" width="1" height="1"/><rect class="h" x="52.91" y="33.13" width="1" height="1"/></g><g><rect class="d" x="50.91" y="35.13" width="4" height="4"/><rect class="h" x="50.91" y="35.13" width="1" height="1"/><rect class="h" x="52.91" y="37.13" width="1" height="1"/></g><g><rect class="d" x="50.91" y="39.13" width="4" height="4"/><rect class="h" x="50.91" y="39.13" width="1" height="1"/><rect class="h" x="52.91" y="41.13" width="1" height="1"/></g><g><rect class="d" x="50.91" y="43.13" width="4" height="4"/><rect class="h" x="50.91" y="43.13" width="1" height="1"/><rect class="h" x="52.91" y="45.13" width="1" height="1"/></g><g><rect class="d" x="46.91" y="23.13" width="4" height="4"/><rect class="h" x="46.91" y="23.13" width="1" height="1"/><rect class="h" x="48.91" y="25.13" width="1" height="1"/></g><g><rect class="d" x="46.91" y="27.13" width="4" height="4"/><rect class="h" x="46.91" y="27.13" width="1" height="1"/><rect class="h" x="48.91" y="29.13" width="1" height="1"/></g><g><rect class="d" x="46.91" y="31.13" width="4" height="4"/><rect class="h" x="46.91" y="31.13" width="1" height="1"/><rect class="h" x="48.91" y="33.13" width="1" height="1"/></g><g><rect class="d" x="46.91" y="35.13" width="4" height="4"/><rect class="h" x="46.91" y="35.13" width="1" height="1"/><rect class="h" x="48.91" y="37.13" width="1" height="1"/></g><g><rect class="d" x="46.91" y="39.13" width="4" height="4"/><rect class="h" x="46.91" y="39.13" width="1" height="1"/><rect class="h" x="48.91" y="41.13" width="1" height="1"/></g><g><rect class="d" x="46.91" y="43.13" width="4" height="4"/><rect class="h" x="46.91" y="43.13" width="1" height="1"/><rect class="h" x="48.91" y="45.13" width="1" height="1"/></g><g><rect class="d" x="42.91" y="23.13" width="4" height="4"/><rect class="h" x="42.91" y="23.13" width="1" height="1"/><rect class="h" x="44.91" y="25.13" width="1" height="1"/></g><g><rect class="d" x="42.91" y="27.13" width="4" height="4"/><rect class="h" x="42.91" y="27.13" width="1" height="1"/><rect class="h" x="44.91" y="29.13" width="1" height="1"/></g><g><rect class="d" x="42.91" y="31.13" width="4" height="4"/><rect class="h" x="42.91" y="31.13" width="1" height="1"/><rect class="h" x="44.91" y="33.13" width="1" height="1"/></g><g><rect class="d" x="42.91" y="35.13" width="4" height="4"/><rect class="h" x="42.91" y="35.13" width="1" height="1"/><rect class="h" x="44.91" y="37.13" width="1" height="1"/></g><g><rect class="d" x="42.91" y="39.13" width="4" height="4"/><rect class="h" x="42.91" y="39.13" width="1" height="1"/><rect class="h" x="44.91" y="41.13" width="1" height="1"/></g><g><rect class="d" x="42.91" y="43.13" width="4" height="4"/><rect class="h" x="42.91" y="43.13" width="1" height="1"/><rect class="h" x="44.91" y="45.13" width="1" height="1"/></g><g><rect class="d" x="38.91" y="23.13" width="4" height="4"/><rect class="h" x="38.91" y="23.13" width="1" height="1"/><rect class="h" x="40.91" y="25.13" width="1" height="1"/></g><g><rect class="d" x="38.91" y="27.13" width="4" height="4"/><rect class="h" x="38.91" y="27.13" width="1" height="1"/><rect class="h" x="40.91" y="29.13" width="1" height="1"/></g><g><rect class="d" x="38.91" y="31.13" width="4" height="4"/><rect class="h" x="38.91" y="31.13" width="1" height="1"/><rect class="h" x="40.91" y="33.13" width="1" height="1"/></g><g><rect class="d" x="38.91" y="35.13" width="4" height="4"/><rect class="h" x="38.91" y="35.13" width="1" height="1"/><rect class="h" x="40.91" y="37.13" width="1" height="1"/></g><g><rect class="d" x="38.91" y="39.13" width="4" height="4"/><rect class="h" x="38.91" y="39.13" width="1" height="1"/><rect class="h" x="40.91" y="41.13" width="1" height="1"/></g><g><rect class="d" x="38.91" y="43.13" width="4" height="4"/><rect class="h" x="38.91" y="43.13" width="1" height="1"/><rect class="h" x="40.91" y="45.13" width="1" height="1"/></g></g><path class="h" d="M64.52,47.33h-23.61V23.72h.5c12.74,0,23.11,10.37,23.11,23.11v.5Zm-22.61-1h21.6c-.26-11.79-9.81-21.34-21.6-21.6v21.6Z"/></g><g><path class="j" d="M61.19,49.67c0,12.49-10.12,22.61-22.61,22.61v-22.61h22.61Z"/><path class="j" d="M38.58,72.78h-.5v-23.61h23.61v.5c0,12.74-10.37,23.11-23.11,23.11Zm.5-22.61v21.6c11.79-.26,21.34-9.81,21.6-21.6h-21.6Z"/></g><g><path class="e" d="M38.58,49.65V27.05c-12.49,0-22.61,10.12-22.61,22.61s10.12,22.61,22.61,22.61v-22.61Z"/><path class="h" d="M39.08,72.76h-.5c-12.74,0-23.11-10.37-23.11-23.11s10.37-23.11,23.11-23.11h.5v46.22Zm-1-45.21c-11.96,.27-21.61,10.08-21.61,22.1s9.65,21.84,21.61,22.1V27.55Z"/></g></g></svg>