<?xml version="1.0" encoding="utf-8"?>
<!-- Generator: Adobe Illustrator 24.3.0, SVG Export Plug-In . SVG Version: 6.00 Build 0)  -->
<svg version="1.1" id="Layer_1" xmlns="http://www.w3.org/2000/svg" xmlns:xlink="http://www.w3.org/1999/xlink" x="0px" y="0px"
	 viewBox="0 0 160 160" style="enable-background:new 0 0 160 160;" xml:space="preserve">
<style type="text/css">
	.st0{fill:#F2FBFF;}
	.st1{fill:#10162F;}
	.st2{fill:#FFFFFF;}
	.st3{clip-path:url(#SVGID_2_);}
	.st4{fill:none;}
	.st5{clip-path:url(#SVGID_4_);}
	.st6{clip-path:url(#SVGID_6_);}
	.st7{clip-path:url(#SVGID_8_);}
</style>
<g>
	<rect x="0.5" y="23.9" class="st0" width="159" height="101"/>
	<path class="st1" d="M160,125.4H0v-102h160V125.4z M1,124.4h158v-100H1V124.4z"/>
</g>
<g>
	<circle class="st1" cx="6.7" cy="30.2" r="1.5"/>
	<path class="st1" d="M6.7,32.2c-1.1,0-2-0.9-2-2c0-1.1,0.9-2,2-2c1.1,0,2,0.9,2,2C8.7,31.3,7.8,32.2,6.7,32.2z M6.7,29.1
		c-0.6,0-1,0.5-1,1c0,0.6,0.5,1,1,1c0.6,0,1-0.5,1-1C7.7,29.6,7.2,29.1,6.7,29.1z"/>
</g>
<g>
	<circle class="st1" cx="12.3" cy="30.2" r="1.5"/>
	<path class="st1" d="M12.3,32.2c-1.1,0-2-0.9-2-2c0-1.1,0.9-2,2-2c1.1,0,2,0.9,2,2C14.4,31.3,13.4,32.2,12.3,32.2z M12.3,29.1
		c-0.6,0-1,0.5-1,1c0,0.6,0.5,1,1,1c0.6,0,1-0.5,1-1C13.4,29.6,12.9,29.1,12.3,29.1z"/>
</g>
<g>
	<circle class="st1" cx="18" cy="30.2" r="1.5"/>
	<path class="st1" d="M18,32.2c-1.1,0-2-0.9-2-2c0-1.1,0.9-2,2-2c1.1,0,2,0.9,2,2C20,31.3,19.1,32.2,18,32.2z M18,29.1
		c-0.6,0-1,0.5-1,1c0,0.6,0.5,1,1,1c0.6,0,1-0.5,1-1C19,29.6,18.6,29.1,18,29.1z"/>
</g>
<g>
	<rect x="81.2" y="17.5" class="st2" width="65.7" height="17.7"/>
	<path class="st1" d="M147.4,35.7H80.7V17h66.7V35.7z M81.7,34.7h64.7V18H81.7V34.7z"/>
</g>
<g>
	<path class="st1" d="M140.6,29.6l-4.1-3.5c-1.3-1.1-3.2-1.1-4.5,0l-1.5,1.3c-1.7,1.4-4.1,1.4-5.8,0l-1.5-1.3
		c-1.3-1.1-3.2-1.1-4.5,0l-1.5,1.3c-1.7,1.4-4.1,1.4-5.8,0l-1.5-1.3c-1.3-1.1-3.2-1.1-4.5,0l-1.5,1.3c-1.7,1.4-4.1,1.4-5.8,0
		l-1.5-1.3c-1.3-1.1-3.2-1.1-4.5,0l-4.1,3.5l-0.6-0.8l4.1-3.5c1.7-1.4,4.1-1.4,5.8,0l1.5,1.3c1.3,1.1,3.2,1.1,4.5,0l1.5-1.3
		c1.7-1.4,4.1-1.4,5.8,0l1.5,1.3c1.3,1.1,3.2,1.1,4.5,0l1.5-1.3c1.7-1.4,4.1-1.4,5.8,0l1.5,1.3c1.3,1.1,3.2,1.1,4.5,0l1.5-1.3
		c1.7-1.4,4.1-1.4,5.8,0l4.1,3.5L140.6,29.6z"/>
</g>
<g>
	<rect x="84.3" y="71.5" class="st0" width="60.2" height="39"/>
	<path class="st1" d="M139.4,111h-4.1v-1h4.1V111z M129.9,111h-4.1v-1h4.1V111z M120.4,111h-4.1v-1h4.1V111z M111,111h-4.1v-1h4.1
		V111z M101.5,111h-4.1v-1h4.1V111z M92,111h-4.1v-1H92V111z M144.9,110.2h-1v-4.1h1V110.2z M84.8,108.8h-1v-4.1h1V108.8z
		 M144.9,100.7h-1v-4.1h1V100.7z M84.8,99.3h-1v-4.1h1V99.3z M144.9,91.2h-1v-4.1h1V91.2z M84.8,89.8h-1v-4.1h1V89.8z M144.9,81.7
		h-1v-4.1h1V81.7z M84.8,80.4h-1v-4.1h1V80.4z M144.9,72.2h-1V72h-2.8v-1h3.8V72.2z M135.7,72h-4.1v-1h4.1V72z M126.2,72h-4.1v-1
		h4.1V72z M116.8,72h-4.1v-1h4.1V72z M107.3,72h-4.1v-1h4.1V72z M97.8,72h-4.1v-1h4.1V72z M88.3,72h-4.1v-1h4.1V72z"/>
</g>
<g>
	<circle class="st2" cx="114.1" cy="90.5" r="8.4"/>
	<path class="st1" d="M114.1,99.4c-4.9,0-8.9-4-8.9-8.9s4-8.9,8.9-8.9s8.9,4,8.9,8.9S119,99.4,114.1,99.4z M114.1,82.5
		c-4.4,0-7.9,3.6-7.9,7.9s3.6,7.9,7.9,7.9s7.9-3.6,7.9-7.9S118.5,82.5,114.1,82.5z"/>
</g>
<g>
	<path class="st1" d="M113.5,91.1h-3.4v-1.4h3.4v-3.4h1.4v3.4h3.4v1.4h-3.4v3.4h-1.4V91.1z"/>
</g>
<g>
	<path class="st1" d="M87.6,47.6H111c3.4,0,6.1,2.7,6.1,6.1v0c0,3.4-2.7,6.1-6.1,6.1H87.6c-3.4,0-6.1-2.7-6.1-6.1v0
		C81.5,50.3,84.2,47.6,87.6,47.6z"/>
	<path class="st1" d="M111,60.4H87.6c-3.7,0-6.6-3-6.6-6.6s3-6.6,6.6-6.6H111c3.7,0,6.6,3,6.6,6.6S114.6,60.4,111,60.4z M87.6,48.1
		c-3.1,0-5.6,2.5-5.6,5.6c0,3.1,2.5,5.6,5.6,5.6H111c3.1,0,5.6-2.5,5.6-5.6c0-3.1-2.5-5.6-5.6-5.6H87.6z"/>
</g>
<g>
	<path class="st0" d="M93.9,53.7c0,3.1-2.6,5.6-5.8,5.6s-5.8-2.5-5.8-5.6c0-3.1,2.6-5.6,5.8-5.6S93.9,50.6,93.9,53.7z"/>
	<path class="st1" d="M88.2,59.8c-3.5,0-6.3-2.7-6.3-6.1s2.8-6.1,6.3-6.1c3.4,0,6.3,2.7,6.3,6.1S91.6,59.8,88.2,59.8z M88.2,48.6
		c-2.9,0-5.3,2.3-5.3,5.1s2.4,5.1,5.3,5.1s5.3-2.3,5.3-5.1S91.1,48.6,88.2,48.6z"/>
</g>
<g>
	<rect x="13.3" y="50" class="st2" width="55.9" height="93.4"/>
	<path class="st1" d="M69.8,143.9H12.8V49.5h56.9V143.9z M13.8,142.9h54.9V50.5H13.8V142.9z"/>
</g>
<g>
	<path class="st0" d="M33,65.8c0,2.9-2.4,5.2-5.3,5.2c-3,0-5.3-2.3-5.3-5.2c0-2.9,2.4-5.2,5.3-5.2C30.6,60.6,33,62.9,33,65.8z"/>
	<path class="st1" d="M27.7,71.5c-3.2,0-5.8-2.6-5.8-5.7c0-3.1,2.6-5.7,5.8-5.7c3.2,0,5.8,2.6,5.8,5.7
		C33.5,68.9,30.9,71.5,27.7,71.5z M27.7,61.1c-2.7,0-4.8,2.1-4.8,4.7c0,2.6,2.2,4.7,4.8,4.7s4.8-2.1,4.8-4.7
		C32.5,63.2,30.3,61.1,27.7,61.1z"/>
</g>
<g>
	<path class="st1" d="M33,86.9c0,2.9-2.4,5.2-5.3,5.2c-3,0-5.3-2.3-5.3-5.2c0-2.9,2.4-5.2,5.3-5.2C30.6,81.8,33,84.1,33,86.9z"/>
	<path class="st1" d="M27.7,92.6c-3.2,0-5.8-2.6-5.8-5.7s2.6-5.7,5.8-5.7c3.2,0,5.8,2.6,5.8,5.7S30.9,92.6,27.7,92.6z M27.7,82.3
		c-2.7,0-4.8,2.1-4.8,4.7s2.2,4.7,4.8,4.7s4.8-2.1,4.8-4.7S30.3,82.3,27.7,82.3z"/>
</g>
<g>
	<path class="st0" d="M33,107.3c0,2.9-2.4,5.2-5.3,5.2c-3,0-5.3-2.3-5.3-5.2c0-2.9,2.4-5.2,5.3-5.2C30.6,102.1,33,104.4,33,107.3z"
		/>
	<path class="st1" d="M27.7,113c-3.2,0-5.8-2.6-5.8-5.7s2.6-5.7,5.8-5.7c3.2,0,5.8,2.6,5.8,5.7S30.9,113,27.7,113z M27.7,102.6
		c-2.7,0-4.8,2.1-4.8,4.7s2.2,4.7,4.8,4.7s4.8-2.1,4.8-4.7S30.3,102.6,27.7,102.6z"/>
</g>
<g>
	<path class="st0" d="M33,126.8c0,2.9-2.4,5.2-5.3,5.2c-3,0-5.3-2.3-5.3-5.2c0-2.9,2.4-5.2,5.3-5.2C30.6,121.6,33,123.9,33,126.8z"
		/>
	<path class="st1" d="M27.7,132.5c-3.2,0-5.8-2.6-5.8-5.7c0-3.1,2.6-5.7,5.8-5.7c3.2,0,5.8,2.6,5.8,5.7
		C33.5,129.9,30.9,132.5,27.7,132.5z M27.7,122.1c-2.7,0-4.8,2.1-4.8,4.7c0,2.6,2.2,4.7,4.8,4.7s4.8-2.1,4.8-4.7
		C32.5,124.2,30.3,122.1,27.7,122.1z"/>
</g>
<g>
	<g>
		<g>
			<defs>
				<rect id="SVGID_1_" x="38.9" y="84.5" width="20.8" height="4.1"/>
			</defs>
			<clipPath id="SVGID_2_">
				<use xlink:href="#SVGID_1_"  style="overflow:visible;"/>
			</clipPath>
			<g class="st3">
				<rect x="58" y="84" class="st4" width="4" height="4"/>
				<rect x="61" y="84" class="st1" width="1" height="1"/>
				<rect x="60" y="85" class="st1" width="1" height="1"/>
				<rect x="59" y="86" class="st1" width="1" height="1"/>
				<rect x="58" y="87" class="st1" width="1" height="1"/>
			</g>
			<g class="st3">
				<rect x="58" y="88" class="st4" width="4" height="4"/>
				<rect x="61" y="88" class="st1" width="1" height="1"/>
				<rect x="60" y="89" class="st1" width="1" height="1"/>
				<rect x="59" y="90" class="st1" width="1" height="1"/>
				<rect x="58" y="91" class="st1" width="1" height="1"/>
			</g>
			<g class="st3">
				<rect x="54" y="84" class="st4" width="4" height="4"/>
				<rect x="57" y="84" class="st1" width="1" height="1"/>
				<rect x="56" y="85" class="st1" width="1" height="1"/>
				<rect x="55" y="86" class="st1" width="1" height="1"/>
				<rect x="54" y="87" class="st1" width="1" height="1"/>
			</g>
			<g class="st3">
				<rect x="54" y="88" class="st4" width="4" height="4"/>
				<rect x="57" y="88" class="st1" width="1" height="1"/>
				<rect x="56" y="89" class="st1" width="1" height="1"/>
				<rect x="55" y="90" class="st1" width="1" height="1"/>
				<rect x="54" y="91" class="st1" width="1" height="1"/>
			</g>
			<g class="st3">
				<rect x="50" y="84" class="st4" width="4" height="4"/>
				<rect x="53" y="84" class="st1" width="1" height="1"/>
				<rect x="52" y="85" class="st1" width="1" height="1"/>
				<rect x="51" y="86" class="st1" width="1" height="1"/>
				<rect x="50" y="87" class="st1" width="1" height="1"/>
			</g>
			<g class="st3">
				<rect x="50" y="88" class="st4" width="4" height="4"/>
				<rect x="53" y="88" class="st1" width="1" height="1"/>
				<rect x="52" y="89" class="st1" width="1" height="1"/>
				<rect x="51" y="90" class="st1" width="1" height="1"/>
				<rect x="50" y="91" class="st1" width="1" height="1"/>
			</g>
			<g class="st3">
				<rect x="46" y="84" class="st4" width="4" height="4"/>
				<rect x="49" y="84" class="st1" width="1" height="1"/>
				<rect x="48" y="85" class="st1" width="1" height="1"/>
				<rect x="47" y="86" class="st1" width="1" height="1"/>
				<rect x="46" y="87" class="st1" width="1" height="1"/>
			</g>
			<g class="st3">
				<rect x="46" y="88" class="st4" width="4" height="4"/>
				<rect x="49" y="88" class="st1" width="1" height="1"/>
				<rect x="48" y="89" class="st1" width="1" height="1"/>
				<rect x="47" y="90" class="st1" width="1" height="1"/>
				<rect x="46" y="91" class="st1" width="1" height="1"/>
			</g>
			<g class="st3">
				<rect x="42" y="84" class="st4" width="4" height="4"/>
				<rect x="45" y="84" class="st1" width="1" height="1"/>
				<rect x="44" y="85" class="st1" width="1" height="1"/>
				<rect x="43" y="86" class="st1" width="1" height="1"/>
				<rect x="42" y="87" class="st1" width="1" height="1"/>
			</g>
			<g class="st3">
				<rect x="42" y="88" class="st4" width="4" height="4"/>
				<rect x="45" y="88" class="st1" width="1" height="1"/>
				<rect x="44" y="89" class="st1" width="1" height="1"/>
				<rect x="43" y="90" class="st1" width="1" height="1"/>
				<rect x="42" y="91" class="st1" width="1" height="1"/>
			</g>
			<g class="st3">
				<rect x="38" y="84" class="st4" width="4" height="4"/>
				<rect x="41" y="84" class="st1" width="1" height="1"/>
				<rect x="40" y="85" class="st1" width="1" height="1"/>
				<rect x="39" y="86" class="st1" width="1" height="1"/>
				<rect x="38" y="87" class="st1" width="1" height="1"/>
			</g>
			<g class="st3">
				<rect x="38" y="88" class="st4" width="4" height="4"/>
				<rect x="41" y="88" class="st1" width="1" height="1"/>
				<rect x="40" y="89" class="st1" width="1" height="1"/>
				<rect x="39" y="90" class="st1" width="1" height="1"/>
				<rect x="38" y="91" class="st1" width="1" height="1"/>
			</g>
		</g>
	</g>
	<g>
		<g>
			<defs>
				<rect id="SVGID_3_" x="38.9" y="64.1" width="20.8" height="4.1"/>
			</defs>
			<clipPath id="SVGID_4_">
				<use xlink:href="#SVGID_3_"  style="overflow:visible;"/>
			</clipPath>
			<g class="st5">
				<rect x="58" y="63.6" class="st4" width="4" height="4"/>
				<rect x="61" y="63.6" class="st1" width="1" height="1"/>
				<rect x="60" y="64.6" class="st1" width="1" height="1"/>
				<rect x="59" y="65.6" class="st1" width="1" height="1"/>
				<rect x="58" y="66.6" class="st1" width="1" height="1"/>
			</g>
			<g class="st5">
				<rect x="58" y="67.6" class="st4" width="4" height="4"/>
				<rect x="61" y="67.6" class="st1" width="1" height="1"/>
				<rect x="60" y="68.6" class="st1" width="1" height="1"/>
				<rect x="59" y="69.6" class="st1" width="1" height="1"/>
				<rect x="58" y="70.6" class="st1" width="1" height="1"/>
			</g>
			<g class="st5">
				<rect x="54" y="63.6" class="st4" width="4" height="4"/>
				<rect x="57" y="63.6" class="st1" width="1" height="1"/>
				<rect x="56" y="64.6" class="st1" width="1" height="1"/>
				<rect x="55" y="65.6" class="st1" width="1" height="1"/>
				<rect x="54" y="66.6" class="st1" width="1" height="1"/>
			</g>
			<g class="st5">
				<rect x="54" y="67.6" class="st4" width="4" height="4"/>
				<rect x="57" y="67.6" class="st1" width="1" height="1"/>
				<rect x="56" y="68.6" class="st1" width="1" height="1"/>
				<rect x="55" y="69.6" class="st1" width="1" height="1"/>
				<rect x="54" y="70.6" class="st1" width="1" height="1"/>
			</g>
			<g class="st5">
				<rect x="50" y="63.6" class="st4" width="4" height="4"/>
				<rect x="53" y="63.6" class="st1" width="1" height="1"/>
				<rect x="52" y="64.6" class="st1" width="1" height="1"/>
				<rect x="51" y="65.6" class="st1" width="1" height="1"/>
				<rect x="50" y="66.6" class="st1" width="1" height="1"/>
			</g>
			<g class="st5">
				<rect x="50" y="67.6" class="st4" width="4" height="4"/>
				<rect x="53" y="67.6" class="st1" width="1" height="1"/>
				<rect x="52" y="68.6" class="st1" width="1" height="1"/>
				<rect x="51" y="69.6" class="st1" width="1" height="1"/>
				<rect x="50" y="70.6" class="st1" width="1" height="1"/>
			</g>
			<g class="st5">
				<rect x="46" y="63.6" class="st4" width="4" height="4"/>
				<rect x="49" y="63.6" class="st1" width="1" height="1"/>
				<rect x="48" y="64.6" class="st1" width="1" height="1"/>
				<rect x="47" y="65.6" class="st1" width="1" height="1"/>
				<rect x="46" y="66.6" class="st1" width="1" height="1"/>
			</g>
			<g class="st5">
				<rect x="46" y="67.6" class="st4" width="4" height="4"/>
				<rect x="49" y="67.6" class="st1" width="1" height="1"/>
				<rect x="48" y="68.6" class="st1" width="1" height="1"/>
				<rect x="47" y="69.6" class="st1" width="1" height="1"/>
				<rect x="46" y="70.6" class="st1" width="1" height="1"/>
			</g>
			<g class="st5">
				<rect x="42" y="63.6" class="st4" width="4" height="4"/>
				<rect x="45" y="63.6" class="st1" width="1" height="1"/>
				<rect x="44" y="64.6" class="st1" width="1" height="1"/>
				<rect x="43" y="65.6" class="st1" width="1" height="1"/>
				<rect x="42" y="66.6" class="st1" width="1" height="1"/>
			</g>
			<g class="st5">
				<rect x="42" y="67.6" class="st4" width="4" height="4"/>
				<rect x="45" y="67.6" class="st1" width="1" height="1"/>
				<rect x="44" y="68.6" class="st1" width="1" height="1"/>
				<rect x="43" y="69.6" class="st1" width="1" height="1"/>
				<rect x="42" y="70.6" class="st1" width="1" height="1"/>
			</g>
			<g class="st5">
				<rect x="38" y="63.6" class="st4" width="4" height="4"/>
				<rect x="41" y="63.6" class="st1" width="1" height="1"/>
				<rect x="40" y="64.6" class="st1" width="1" height="1"/>
				<rect x="39" y="65.6" class="st1" width="1" height="1"/>
				<rect x="38" y="66.6" class="st1" width="1" height="1"/>
			</g>
			<g class="st5">
				<rect x="38" y="67.6" class="st4" width="4" height="4"/>
				<rect x="41" y="67.6" class="st1" width="1" height="1"/>
				<rect x="40" y="68.6" class="st1" width="1" height="1"/>
				<rect x="39" y="69.6" class="st1" width="1" height="1"/>
				<rect x="38" y="70.6" class="st1" width="1" height="1"/>
			</g>
		</g>
	</g>
	<g>
		<g>
			<defs>
				<rect id="SVGID_5_" x="38.9" y="104.8" width="20.8" height="4.1"/>
			</defs>
			<clipPath id="SVGID_6_">
				<use xlink:href="#SVGID_5_"  style="overflow:visible;"/>
			</clipPath>
			<g class="st6">
				<rect x="58" y="104" class="st4" width="4" height="4"/>
				<rect x="61" y="104" class="st1" width="1" height="1"/>
				<rect x="60" y="105" class="st1" width="1" height="1"/>
				<rect x="59" y="106" class="st1" width="1" height="1"/>
				<rect x="58" y="107" class="st1" width="1" height="1"/>
			</g>
			<g class="st6">
				<rect x="58" y="108" class="st4" width="4" height="4"/>
				<rect x="61" y="108" class="st1" width="1" height="1"/>
				<rect x="60" y="109" class="st1" width="1" height="1"/>
				<rect x="59" y="110" class="st1" width="1" height="1"/>
				<rect x="58" y="111" class="st1" width="1" height="1"/>
			</g>
			<g class="st6">
				<rect x="54" y="104" class="st4" width="4" height="4"/>
				<rect x="57" y="104" class="st1" width="1" height="1"/>
				<rect x="56" y="105" class="st1" width="1" height="1"/>
				<rect x="55" y="106" class="st1" width="1" height="1"/>
				<rect x="54" y="107" class="st1" width="1" height="1"/>
			</g>
			<g class="st6">
				<rect x="54" y="108" class="st4" width="4" height="4"/>
				<rect x="57" y="108" class="st1" width="1" height="1"/>
				<rect x="56" y="109" class="st1" width="1" height="1"/>
				<rect x="55" y="110" class="st1" width="1" height="1"/>
				<rect x="54" y="111" class="st1" width="1" height="1"/>
			</g>
			<g class="st6">
				<rect x="50" y="104" class="st4" width="4" height="4"/>
				<rect x="53" y="104" class="st1" width="1" height="1"/>
				<rect x="52" y="105" class="st1" width="1" height="1"/>
				<rect x="51" y="106" class="st1" width="1" height="1"/>
				<rect x="50" y="107" class="st1" width="1" height="1"/>
			</g>
			<g class="st6">
				<rect x="50" y="108" class="st4" width="4" height="4"/>
				<rect x="53" y="108" class="st1" width="1" height="1"/>
				<rect x="52" y="109" class="st1" width="1" height="1"/>
				<rect x="51" y="110" class="st1" width="1" height="1"/>
				<rect x="50" y="111" class="st1" width="1" height="1"/>
			</g>
			<g class="st6">
				<rect x="46" y="104" class="st4" width="4" height="4"/>
				<rect x="49" y="104" class="st1" width="1" height="1"/>
				<rect x="48" y="105" class="st1" width="1" height="1"/>
				<rect x="47" y="106" class="st1" width="1" height="1"/>
				<rect x="46" y="107" class="st1" width="1" height="1"/>
			</g>
			<g class="st6">
				<rect x="46" y="108" class="st4" width="4" height="4"/>
				<rect x="49" y="108" class="st1" width="1" height="1"/>
				<rect x="48" y="109" class="st1" width="1" height="1"/>
				<rect x="47" y="110" class="st1" width="1" height="1"/>
				<rect x="46" y="111" class="st1" width="1" height="1"/>
			</g>
			<g class="st6">
				<rect x="42" y="104" class="st4" width="4" height="4"/>
				<rect x="45" y="104" class="st1" width="1" height="1"/>
				<rect x="44" y="105" class="st1" width="1" height="1"/>
				<rect x="43" y="106" class="st1" width="1" height="1"/>
				<rect x="42" y="107" class="st1" width="1" height="1"/>
			</g>
			<g class="st6">
				<rect x="42" y="108" class="st4" width="4" height="4"/>
				<rect x="45" y="108" class="st1" width="1" height="1"/>
				<rect x="44" y="109" class="st1" width="1" height="1"/>
				<rect x="43" y="110" class="st1" width="1" height="1"/>
				<rect x="42" y="111" class="st1" width="1" height="1"/>
			</g>
			<g class="st6">
				<rect x="38" y="104" class="st4" width="4" height="4"/>
				<rect x="41" y="104" class="st1" width="1" height="1"/>
				<rect x="40" y="105" class="st1" width="1" height="1"/>
				<rect x="39" y="106" class="st1" width="1" height="1"/>
				<rect x="38" y="107" class="st1" width="1" height="1"/>
			</g>
			<g class="st6">
				<rect x="38" y="108" class="st4" width="4" height="4"/>
				<rect x="41" y="108" class="st1" width="1" height="1"/>
				<rect x="40" y="109" class="st1" width="1" height="1"/>
				<rect x="39" y="110" class="st1" width="1" height="1"/>
				<rect x="38" y="111" class="st1" width="1" height="1"/>
			</g>
		</g>
	</g>
	<g>
		<g>
			<defs>
				<rect id="SVGID_7_" x="38.9" y="124.4" width="20.8" height="4.1"/>
			</defs>
			<clipPath id="SVGID_8_">
				<use xlink:href="#SVGID_7_"  style="overflow:visible;"/>
			</clipPath>
			<g class="st7">
				<rect x="58" y="124" class="st4" width="4" height="4"/>
				<rect x="61" y="124" class="st1" width="1" height="1"/>
				<rect x="60" y="125" class="st1" width="1" height="1"/>
				<rect x="59" y="126" class="st1" width="1" height="1"/>
				<rect x="58" y="127" class="st1" width="1" height="1"/>
			</g>
			<g class="st7">
				<rect x="58" y="128" class="st4" width="4" height="4"/>
				<rect x="61" y="128" class="st1" width="1" height="1"/>
				<rect x="60" y="129" class="st1" width="1" height="1"/>
				<rect x="59" y="130" class="st1" width="1" height="1"/>
				<rect x="58" y="131" class="st1" width="1" height="1"/>
			</g>
			<g class="st7">
				<rect x="54" y="124" class="st4" width="4" height="4"/>
				<rect x="57" y="124" class="st1" width="1" height="1"/>
				<rect x="56" y="125" class="st1" width="1" height="1"/>
				<rect x="55" y="126" class="st1" width="1" height="1"/>
				<rect x="54" y="127" class="st1" width="1" height="1"/>
			</g>
			<g class="st7">
				<rect x="54" y="128" class="st4" width="4" height="4"/>
				<rect x="57" y="128" class="st1" width="1" height="1"/>
				<rect x="56" y="129" class="st1" width="1" height="1"/>
				<rect x="55" y="130" class="st1" width="1" height="1"/>
				<rect x="54" y="131" class="st1" width="1" height="1"/>
			</g>
			<g class="st7">
				<rect x="50" y="124" class="st4" width="4" height="4"/>
				<rect x="53" y="124" class="st1" width="1" height="1"/>
				<rect x="52" y="125" class="st1" width="1" height="1"/>
				<rect x="51" y="126" class="st1" width="1" height="1"/>
				<rect x="50" y="127" class="st1" width="1" height="1"/>
			</g>
			<g class="st7">
				<rect x="50" y="128" class="st4" width="4" height="4"/>
				<rect x="53" y="128" class="st1" width="1" height="1"/>
				<rect x="52" y="129" class="st1" width="1" height="1"/>
				<rect x="51" y="130" class="st1" width="1" height="1"/>
				<rect x="50" y="131" class="st1" width="1" height="1"/>
			</g>
			<g class="st7">
				<rect x="46" y="124" class="st4" width="4" height="4"/>
				<rect x="49" y="124" class="st1" width="1" height="1"/>
				<rect x="48" y="125" class="st1" width="1" height="1"/>
				<rect x="47" y="126" class="st1" width="1" height="1"/>
				<rect x="46" y="127" class="st1" width="1" height="1"/>
			</g>
			<g class="st7">
				<rect x="46" y="128" class="st4" width="4" height="4"/>
				<rect x="49" y="128" class="st1" width="1" height="1"/>
				<rect x="48" y="129" class="st1" width="1" height="1"/>
				<rect x="47" y="130" class="st1" width="1" height="1"/>
				<rect x="46" y="131" class="st1" width="1" height="1"/>
			</g>
			<g class="st7">
				<rect x="42" y="124" class="st4" width="4" height="4"/>
				<rect x="45" y="124" class="st1" width="1" height="1"/>
				<rect x="44" y="125" class="st1" width="1" height="1"/>
				<rect x="43" y="126" class="st1" width="1" height="1"/>
				<rect x="42" y="127" class="st1" width="1" height="1"/>
			</g>
			<g class="st7">
				<rect x="42" y="128" class="st4" width="4" height="4"/>
				<rect x="45" y="128" class="st1" width="1" height="1"/>
				<rect x="44" y="129" class="st1" width="1" height="1"/>
				<rect x="43" y="130" class="st1" width="1" height="1"/>
				<rect x="42" y="131" class="st1" width="1" height="1"/>
			</g>
			<g class="st7">
				<rect x="38" y="124" class="st4" width="4" height="4"/>
				<rect x="41" y="124" class="st1" width="1" height="1"/>
				<rect x="40" y="125" class="st1" width="1" height="1"/>
				<rect x="39" y="126" class="st1" width="1" height="1"/>
				<rect x="38" y="127" class="st1" width="1" height="1"/>
			</g>
			<g class="st7">
				<rect x="38" y="128" class="st4" width="4" height="4"/>
				<rect x="41" y="128" class="st1" width="1" height="1"/>
				<rect x="40" y="129" class="st1" width="1" height="1"/>
				<rect x="39" y="130" class="st1" width="1" height="1"/>
				<rect x="38" y="131" class="st1" width="1" height="1"/>
			</g>
		</g>
	</g>
</g>
</svg>
