<svg id="Layer_1" data-name="Layer 1" xmlns="http://www.w3.org/2000/svg" xmlns:xlink="http://www.w3.org/1999/xlink" viewBox="0 0 200 200"><defs><style>.cls-1{fill:none;}.cls-2{fill:#fff9e6;}.cls-3{fill:#111730;}.cls-4{clip-path:url(#clip-path);}.cls-5{fill:#10172f;}.cls-6{fill:#ffd300;}.cls-7{fill:#0f172f;}.cls-8{fill:#aee938;}.cls-9{clip-path:url(#clip-path-2);}.cls-10{fill:#000001;}.cls-11{clip-path:url(#clip-path-3);}.cls-12{clip-path:url(#clip-path-4);}.cls-13{fill:#66c4ff;}.cls-14{clip-path:url(#clip-path-5);}.cls-15{clip-path:url(#clip-path-6);}.cls-16{clip-path:url(#clip-path-7);}.cls-17{clip-path:url(#clip-path-8);}.cls-18{clip-path:url(#clip-path-9);}.cls-19{clip-path:url(#clip-path-10);}</style><clipPath id="clip-path"><path class="cls-1" d="M143.56,116.06"/></clipPath><clipPath id="clip-path-2"><circle class="cls-1" cx="34.96" cy="55.71" r="2"/></clipPath><clipPath id="clip-path-3"><circle class="cls-1" cx="28.87" cy="49.65" r="2"/></clipPath><clipPath id="clip-path-4"><circle class="cls-1" cx="36.59" cy="50.42" r="2"/></clipPath><clipPath id="clip-path-5"><circle class="cls-1" cx="152.68" cy="82.54" r="2"/></clipPath><clipPath id="clip-path-6"><circle class="cls-1" cx="146.08" cy="80.37" r="2"/></clipPath><clipPath id="clip-path-7"><circle class="cls-1" cx="155.68" cy="77.55" r="2"/></clipPath><clipPath id="clip-path-8"><circle class="cls-1" cx="95.36" cy="131.78" r="2"/></clipPath><clipPath id="clip-path-9"><circle class="cls-1" cx="98" cy="140" r="2"/></clipPath><clipPath id="clip-path-10"><circle class="cls-1" cx="90.25" cy="138.17" r="2"/></clipPath></defs><rect class="cls-2" x="0.23" y="28.39" width="186" height="128.88"/><path class="cls-3" d="M186.73,157.77H-.27V27.89h187Zm-186-1h185V28.89H.73Z"/><g class="cls-4"><rect class="cls-1" x="142.91" y="115.38" width="4" height="4"/><rect class="cls-5" x="142.91" y="115.38" width="1" height="1"/><rect class="cls-5" x="144.91" y="117.38" width="1" height="1"/></g><rect class="cls-6" x="149.77" y="121.61" width="50" height="50" rx="2"/><path class="cls-3" d="M197.77,172.11h-46a2.5,2.5,0,0,1-2.5-2.5v-46a2.5,2.5,0,0,1,2.5-2.5h46a2.5,2.5,0,0,1,2.5,2.5v46A2.5,2.5,0,0,1,197.77,172.11Zm-46-50a1.5,1.5,0,0,0-1.5,1.5v46a1.5,1.5,0,0,0,1.5,1.5h46a1.5,1.5,0,0,0,1.5-1.5v-46a1.5,1.5,0,0,0-1.5-1.5Z"/><circle class="cls-7" cx="161.02" cy="132.75" r="4.05"/><rect class="cls-7" x="169.74" y="131.81" width="21.62" height="1"/><circle class="cls-7" cx="187.31" cy="146.53" r="4.05"/><rect class="cls-7" x="156.97" y="145.58" width="21.62" height="1"/><circle class="cls-7" cx="161.02" cy="160.3" r="4.05"/><rect class="cls-7" x="169.74" y="159.36" width="21.62" height="1"/><path class="cls-7" d="M140.55,78.6l-3.89-.91.22-1,3.9.91Zm-7.79-1.82-3.89-.91.22-1,3.9.92ZM125,75,121.08,74l.23-1,3.89.91Zm-7.79-1.82-3.89-.92.23-1,3.89.91Zm-7.79-1.83-3.89-.91.23-1,3.89.91Zm-7.78-1.83-3.9-.91.23-1,3.89.91Zm-7.79-1.82-3.9-.91.23-1,3.9.92ZM86,65.82l-3.9-.91.23-1,3.9.91ZM78.24,64l-3.9-.92.23-1,3.9.91Zm-7.79-1.83-3.89-.91.22-1,3.9.91Zm-7.79-1.83-3.89-.91.23-1,3.89.91Zm-7.79-1.82L51,57.61l.23-1,3.89.92Zm-7.79-1.83-3.89-.91.23-1,3.89.91Z"/><path class="cls-7" d="M91.43,126.62l-2.5-3.12.78-.63,2.5,3.12Zm-5-6.24-2.5-3.13.78-.62,2.5,3.12Zm-5-6.25L78.93,111l.78-.62,2.5,3.12Zm-5-6.24-2.5-3.12.78-.63,2.5,3.12Zm-5-6.24-2.5-3.12.78-.63L72.2,101Zm-5-6.25-2.5-3.12.78-.62,2.5,3.12Zm-5-6.24L58.92,86l.78-.63,2.5,3.13Zm-5-6.24-2.5-3.12.78-.63,2.5,3.12Zm-5-6.25-2.51-3.12.78-.62,2.51,3.12Zm-5-6.24-2.5-3.12.78-.63,2.5,3.13Zm-5-6.24-2.5-3.12.78-.63,2.5,3.12Z"/><circle class="cls-8" cx="32.75" cy="52.04" r="10.5"/><path class="cls-3" d="M32.75,63a11,11,0,1,1,11-11A11,11,0,0,1,32.75,63Zm0-21a10,10,0,1,0,10,10A10,10,0,0,0,32.75,42Z"/><g class="cls-9"><rect class="cls-10" x="32.29" y="53.04" width="5.33" height="5.33" transform="translate(-14.84 12.75) rotate(-17.11)"/></g><g class="cls-11"><rect class="cls-10" x="26.2" y="46.99" width="5.33" height="5.33" transform="translate(-13.33 10.69) rotate(-17.11)"/></g><g class="cls-12"><rect class="cls-10" x="33.93" y="47.75" width="5.33" height="5.33" transform="translate(-13.21 12.99) rotate(-17.11)"/></g><circle class="cls-13" cx="151.34" cy="80.14" r="10.5"/><path class="cls-3" d="M151.34,91.14a11,11,0,1,1,11-11A11,11,0,0,1,151.34,91.14Zm0-21a10,10,0,1,0,10,10A10,10,0,0,0,151.34,70.14Z"/><g class="cls-14"><rect class="cls-10" x="150.01" y="79.88" width="5.33" height="5.33" transform="translate(-17.52 48.56) rotate(-17.11)"/></g><g class="cls-15"><rect class="cls-10" x="143.41" y="77.7" width="5.33" height="5.33" transform="translate(-17.18 46.52) rotate(-17.11)"/></g><g class="cls-16"><rect class="cls-10" x="153.01" y="74.89" width="5.33" height="5.33" transform="translate(-15.92 49.22) rotate(-17.11)"/></g><circle class="cls-6" cx="94.65" cy="136.68" r="10.5"/><path class="cls-3" d="M94.65,147.68a11,11,0,1,1,11-11A11,11,0,0,1,94.65,147.68Zm0-21a10,10,0,1,0,10,10A10,10,0,0,0,94.65,126.68Z"/><g class="cls-17"><rect class="cls-10" x="92.7" y="129.12" width="5.33" height="5.33" transform="translate(-34.54 33.88) rotate(-17.11)"/></g><g class="cls-18"><rect class="cls-10" x="95.34" y="137.34" width="5.33" height="5.33" transform="translate(-36.84 35.02) rotate(-17.11)"/></g><g class="cls-19"><rect class="cls-10" x="87.59" y="135.5" width="5.33" height="5.33" transform="translate(-36.65 32.66) rotate(-17.11)"/></g><path class="cls-7" d="M99.58,128l-.7-.71,2.84-2.82.7.71Zm5.68-5.64-.71-.7,2.84-2.82.71.7Zm5.67-5.63-.7-.71,2.84-2.82.7.71Zm5.68-5.64-.71-.71,2.84-2.82.71.71Zm5.67-5.64-.7-.71,2.84-2.82.7.71ZM128,99.77l-.71-.71,2.84-2.82.71.71Zm5.67-5.64-.7-.71,2.84-2.82.7.71Zm5.68-5.64-.71-.71L141.44,85l.71.71Z"/></svg>