<?xml version="1.0" encoding="UTF-8"?><svg id="a" xmlns="http://www.w3.org/2000/svg" viewBox="0 0 200 200"><defs><style>.b{fill:#fff9e6;}.c{fill:#ffd300;}.d{fill:#66c4ff;}.e{fill:#aee938;}.f{fill:#111730;}.g{fill:#0f172f;}</style></defs><g><circle class="c" cx="12.49" cy="63.51" r="11.99"/><path class="f" d="M12.49,52.03c6.33,0,11.49,5.15,11.49,11.49s-5.15,11.49-11.49,11.49S1,69.85,1,63.51s5.15-11.49,11.49-11.49m0-1c-6.9,0-12.49,5.59-12.49,12.49s5.59,12.49,12.49,12.49,12.49-5.59,12.49-12.49-5.59-12.49-12.49-12.49h0Z"/></g><g><circle class="e" cx="12.49" cy="100" r="11.99"/><path class="f" d="M12.49,88.51c6.33,0,11.49,5.15,11.49,11.49s-5.15,11.49-11.49,11.49-11.49-5.15-11.49-11.49,5.15-11.49,11.49-11.49m0-1c-6.9,0-12.49,5.59-12.49,12.49s5.59,12.49,12.49,12.49,12.49-5.59,12.49-12.49-5.59-12.49-12.49-12.49h0Z"/></g><g><path class="d" d="M12.49,148.49c-6.61,0-11.99-5.38-11.99-11.99s5.38-11.99,11.99-11.99,11.99,5.38,11.99,11.99-5.38,11.99-11.99,11.99Z"/><path class="f" d="M12.49,125.01c6.33,0,11.49,5.15,11.49,11.49s-5.15,11.49-11.49,11.49-11.49-5.15-11.49-11.49,5.15-11.49,11.49-11.49m0-1c-6.9,0-12.49,5.59-12.49,12.49s5.59,12.49,12.49,12.49,12.49-5.59,12.49-12.49-5.59-12.49-12.49-12.49h0Z"/></g><g><path class="c" d="M55.93,75.5c-6.61,0-11.99-5.38-11.99-11.99s5.38-11.99,11.99-11.99,11.99,5.38,11.99,11.99-5.38,11.99-11.99,11.99Z"/><path class="f" d="M55.93,52.03c6.33,0,11.49,5.15,11.49,11.49s-5.15,11.49-11.49,11.49-11.49-5.15-11.49-11.49,5.15-11.49,11.49-11.49m0-1c-6.9,0-12.49,5.59-12.49,12.49s5.59,12.49,12.49,12.49,12.49-5.59,12.49-12.49-5.59-12.49-12.49-12.49h0Z"/></g><g><path class="e" d="M55.93,111.99c-6.61,0-11.99-5.38-11.99-11.99s5.38-11.99,11.99-11.99,11.99,5.38,11.99,11.99-5.38,11.99-11.99,11.99Z"/><path class="f" d="M55.93,88.51c6.33,0,11.49,5.15,11.49,11.49s-5.15,11.49-11.49,11.49-11.49-5.15-11.49-11.49,5.15-11.49,11.49-11.49m0-1c-6.9,0-12.49,5.59-12.49,12.49s5.59,12.49,12.49,12.49,12.49-5.59,12.49-12.49-5.59-12.49-12.49-12.49h0Z"/></g><g><path class="d" d="M55.93,148.49c-6.61,0-11.99-5.38-11.99-11.99s5.38-11.99,11.99-11.99,11.99,5.38,11.99,11.99-5.38,11.99-11.99,11.99Z"/><path class="f" d="M55.93,125.01c6.33,0,11.49,5.15,11.49,11.49s-5.15,11.49-11.49,11.49-11.49-5.15-11.49-11.49,5.15-11.49,11.49-11.49m0-1c-6.9,0-12.49,5.59-12.49,12.49s5.59,12.49,12.49,12.49,12.49-5.59,12.49-12.49-5.59-12.49-12.49-12.49h0Z"/></g><g><circle class="g" cx="187.51" cy="63.51" r="11.99"/><path class="g" d="M187.51,52.03c6.33,0,11.49,5.15,11.49,11.49s-5.15,11.49-11.49,11.49-11.49-5.15-11.49-11.49,5.15-11.49,11.49-11.49m0-1c-6.9,0-12.49,5.59-12.49,12.49s5.59,12.49,12.49,12.49,12.49-5.59,12.49-12.49-5.59-12.49-12.49-12.49h0Z"/></g><g><circle class="g" cx="187.51" cy="100" r="11.99"/><path class="g" d="M187.51,88.51c6.33,0,11.49,5.15,11.49,11.49s-5.15,11.49-11.49,11.49-11.49-5.15-11.49-11.49,5.15-11.49,11.49-11.49m0-1c-6.9,0-12.49,5.59-12.49,12.49s5.59,12.49,12.49,12.49,12.49-5.59,12.49-12.49-5.59-12.49-12.49-12.49h0Z"/></g><g><path class="g" d="M187.51,148.49c-6.61,0-11.99-5.38-11.99-11.99s5.38-11.99,11.99-11.99,11.99,5.38,11.99,11.99-5.38,11.99-11.99,11.99Z"/><path class="g" d="M187.51,125.01c6.33,0,11.49,5.15,11.49,11.49s-5.15,11.49-11.49,11.49-11.49-5.15-11.49-11.49,5.15-11.49,11.49-11.49m0-1c-6.9,0-12.49,5.59-12.49,12.49s5.59,12.49,12.49,12.49,12.49-5.59,12.49-12.49-5.59-12.49-12.49-12.49h0Z"/></g><g><circle class="g" cx="144.07" cy="63.51" r="11.99"/><path class="g" d="M144.07,52.03c6.33,0,11.49,5.15,11.49,11.49s-5.15,11.49-11.49,11.49-11.49-5.15-11.49-11.49,5.15-11.49,11.49-11.49m0-1c-6.9,0-12.49,5.59-12.49,12.49s5.59,12.49,12.49,12.49,12.49-5.59,12.49-12.49-5.59-12.49-12.49-12.49h0Z"/></g><g><circle class="g" cx="144.07" cy="100" r="11.99"/><path class="g" d="M144.07,88.51c6.33,0,11.49,5.15,11.49,11.49s-5.15,11.49-11.49,11.49-11.49-5.15-11.49-11.49,5.15-11.49,11.49-11.49m0-1c-6.9,0-12.49,5.59-12.49,12.49s5.59,12.49,12.49,12.49,12.49-5.59,12.49-12.49-5.59-12.49-12.49-12.49h0Z"/></g><g><path class="g" d="M144.07,148.49c-6.61,0-11.99-5.38-11.99-11.99s5.38-11.99,11.99-11.99,11.99,5.38,11.99,11.99-5.38,11.99-11.99,11.99Z"/><path class="g" d="M144.07,125.01c6.33,0,11.49,5.15,11.49,11.49s-5.15,11.49-11.49,11.49-11.49-5.15-11.49-11.49,5.15-11.49,11.49-11.49m0-1c-6.9,0-12.49,5.59-12.49,12.49s5.59,12.49,12.49,12.49,12.49-5.59,12.49-12.49-5.59-12.49-12.49-12.49h0Z"/></g><rect class="g" x="111.86" y="99.5" width="19.72" height="1"/><rect class="g" x="68.42" y="99.5" width="18.97" height="1"/><rect class="g" x="24.97" y="99.5" width="18.47" height="1"/><rect class="g" x="24.42" y="136" width="19.02" height="1"/><rect class="g" x="24.42" y="63.01" width="19.02" height="1"/><rect class="g" x="155.99" y="99.5" width="19.47" height="1"/><rect class="g" x="155.99" y="136" width="19.47" height="1"/><rect class="g" x="155.99" y="63.01" width="19.47" height="1"/><polygon class="g" points="124.59 83.21 111.86 83.21 111.86 82.21 123.59 82.21 123.59 62.94 131.58 62.94 131.58 63.94 124.59 63.94 124.59 83.21"/><polygon class="g" points="131.58 136.83 123.59 136.83 123.59 117.56 111.86 117.56 111.86 116.56 124.59 116.56 124.59 135.83 131.58 135.83 131.58 136.83"/><polygon class="g" points="87.17 83.21 75.44 83.21 75.44 63.94 68.45 63.94 68.45 62.94 76.44 62.94 76.44 82.21 87.17 82.21 87.17 83.21"/><polygon class="g" points="76.44 136.83 68.45 136.83 68.45 135.83 75.44 135.83 75.44 116.56 87.17 116.56 87.17 117.56 76.44 117.56 76.44 136.83"/><g><rect class="b" x="87.42" y="39.44" width="24.97" height="121.13" rx="12.49" ry="12.49"/><path class="f" d="M99.91,161.06c-7.16,0-12.99-5.83-12.99-12.99V51.92c0-7.16,5.83-12.99,12.99-12.99s12.99,5.83,12.99,12.99v96.15c0,7.16-5.83,12.99-12.99,12.99Zm0-121.12c-6.61,0-11.99,5.38-11.99,11.99v96.15c0,6.61,5.38,11.99,11.99,11.99h0c6.61,0,11.99-5.38,11.99-11.99V51.92c0-6.61-5.38-11.99-11.99-11.99Z"/></g><rect class="g" x="13.8" y="81.42" width="40.97" height="1" transform="translate(-54.09 73.2) rotate(-61.66)"/><rect class="g" x="13.43" y="117.72" width="41.4" height="1" transform="translate(-86.29 92.92) rotate(-62.03)"/><rect class="g" x="33.63" y="61.09" width="1" height="41.28" transform="translate(-34.43 25.66) rotate(-28.06)"/><rect class="g" x="33.74" y="97.52" width="1" height="41.26" transform="translate(-51.5 29.94) rotate(-28.03)"/><rect class="g" x="94.96" y="46.77" width="9.99" height="9.99" rx="4.99" ry="4.99"/><rect class="g" x="94.96" y="60.48" width="9.99" height="9.99" rx="4.99" ry="4.99"/><rect class="g" x="94.96" y="74.18" width="9.99" height="9.99" rx="4.99" ry="4.99"/><rect class="g" x="94.96" y="87.89" width="9.99" height="9.99" rx="4.99" ry="4.99"/><rect class="g" x="94.96" y="101.6" width="9.99" height="9.99" rx="4.99" ry="4.99"/><rect class="g" x="94.96" y="115.3" width="9.99" height="9.99" rx="4.99" ry="4.99"/><rect class="g" x="94.96" y="129.01" width="9.99" height="9.99" rx="4.99" ry="4.99"/><rect class="g" x="94.96" y="142.71" width="9.99" height="9.99" rx="4.99" ry="4.99"/><g><circle class="g" cx="55.93" cy="63.51" r="6.82"/><path class="g" d="M55.93,70.83c-4.04,0-7.32-3.28-7.32-7.32s3.28-7.32,7.32-7.32,7.32,3.28,7.32,7.32-3.28,7.32-7.32,7.32Zm0-13.64c-3.48,0-6.32,2.83-6.32,6.32s2.84,6.32,6.32,6.32,6.32-2.83,6.32-6.32-2.83-6.32-6.32-6.32Z"/></g><g><circle class="g" cx="55.93" cy="99.84" r="6.82"/><path class="g" d="M55.93,107.16c-4.04,0-7.32-3.28-7.32-7.32s3.28-7.32,7.32-7.32,7.32,3.28,7.32,7.32-3.28,7.32-7.32,7.32Zm0-13.64c-3.48,0-6.32,2.83-6.32,6.32s2.84,6.32,6.32,6.32,6.32-2.83,6.32-6.32-2.83-6.32-6.32-6.32Z"/></g><g><circle class="g" cx="55.93" cy="136.5" r="6.82"/><path class="g" d="M55.93,143.82c-4.04,0-7.32-3.28-7.32-7.32s3.28-7.32,7.32-7.32,7.32,3.28,7.32,7.32-3.28,7.32-7.32,7.32Zm0-13.64c-3.48,0-6.32,2.83-6.32,6.32s2.84,6.32,6.32,6.32,6.32-2.83,6.32-6.32-2.83-6.32-6.32-6.32Z"/></g><g><circle class="g" cx="12.45" cy="63.51" r="6.82"/><path class="g" d="M12.45,70.83c-4.04,0-7.32-3.28-7.32-7.32s3.28-7.32,7.32-7.32,7.32,3.28,7.32,7.32-3.28,7.32-7.32,7.32Zm0-13.64c-3.48,0-6.32,2.83-6.32,6.32s2.84,6.32,6.32,6.32,6.32-2.83,6.32-6.32-2.84-6.32-6.32-6.32Z"/></g><g><circle class="g" cx="12.45" cy="99.84" r="6.82"/><path class="g" d="M12.45,107.16c-4.04,0-7.32-3.28-7.32-7.32s3.28-7.32,7.32-7.32,7.32,3.28,7.32,7.32-3.28,7.32-7.32,7.32Zm0-13.64c-3.48,0-6.32,2.83-6.32,6.32s2.84,6.32,6.32,6.32,6.32-2.83,6.32-6.32-2.84-6.32-6.32-6.32Z"/></g><g><circle class="g" cx="12.45" cy="136.5" r="6.82"/><path class="g" d="M12.45,143.82c-4.04,0-7.32-3.28-7.32-7.32s3.28-7.32,7.32-7.32,7.32,3.28,7.32,7.32-3.28,7.32-7.32,7.32Zm0-13.64c-3.48,0-6.32,2.83-6.32,6.32s2.84,6.32,6.32,6.32,6.32-2.83,6.32-6.32-2.84-6.32-6.32-6.32Z"/></g><g><circle class="c" cx="187.6" cy="63.51" r="6.82"/><path class="f" d="M187.6,70.83c-4.04,0-7.32-3.28-7.32-7.32s3.28-7.32,7.32-7.32,7.32,3.28,7.32,7.32-3.28,7.32-7.32,7.32Zm0-13.64c-3.49,0-6.32,2.83-6.32,6.32s2.83,6.32,6.32,6.32,6.32-2.83,6.32-6.32-2.83-6.32-6.32-6.32Z"/></g><g><circle class="e" cx="187.6" cy="99.84" r="6.82"/><path class="f" d="M187.6,107.16c-4.04,0-7.32-3.28-7.32-7.32s3.28-7.32,7.32-7.32,7.32,3.28,7.32,7.32-3.28,7.32-7.32,7.32Zm0-13.64c-3.49,0-6.32,2.83-6.32,6.32s2.83,6.32,6.32,6.32,6.32-2.83,6.32-6.32-2.83-6.32-6.32-6.32Z"/></g><g><circle class="d" cx="187.6" cy="136.5" r="6.82"/><path class="f" d="M187.6,143.82c-4.04,0-7.32-3.28-7.32-7.32s3.28-7.32,7.32-7.32,7.32,3.28,7.32,7.32-3.28,7.32-7.32,7.32Zm0-13.64c-3.49,0-6.32,2.83-6.32,6.32s2.83,6.32,6.32,6.32,6.32-2.83,6.32-6.32-2.83-6.32-6.32-6.32Z"/></g><g><circle class="c" cx="144.12" cy="63.51" r="6.82"/><path class="f" d="M144.12,70.83c-4.04,0-7.32-3.28-7.32-7.32s3.28-7.32,7.32-7.32,7.32,3.28,7.32,7.32-3.28,7.32-7.32,7.32Zm0-13.64c-3.48,0-6.32,2.83-6.32,6.32s2.83,6.32,6.32,6.32,6.32-2.83,6.32-6.32-2.83-6.32-6.32-6.32Z"/></g><g><circle class="e" cx="144.12" cy="99.84" r="6.82"/><path class="f" d="M144.12,107.16c-4.04,0-7.32-3.28-7.32-7.32s3.28-7.32,7.32-7.32,7.32,3.28,7.32,7.32-3.28,7.32-7.32,7.32Zm0-13.64c-3.48,0-6.32,2.83-6.32,6.32s2.83,6.32,6.32,6.32,6.32-2.83,6.32-6.32-2.83-6.32-6.32-6.32Z"/></g><g><circle class="d" cx="144.12" cy="136.5" r="6.82"/><path class="f" d="M144.12,143.82c-4.04,0-7.32-3.28-7.32-7.32s3.28-7.32,7.32-7.32,7.32,3.28,7.32,7.32-3.28,7.32-7.32,7.32Zm0-13.64c-3.48,0-6.32,2.83-6.32,6.32s2.83,6.32,6.32,6.32,6.32-2.83,6.32-6.32-2.83-6.32-6.32-6.32Z"/></g></svg>