<svg width="200" height="36" viewBox="0 0 200 36" fill="none" xmlns="http://www.w3.org/2000/svg">
<g id="Group 4030">
<path id="Vector" d="M49.3974 0.0634322C48.4506 0.0648513 47.543 0.441586 46.8736 1.11106C46.2041 1.78053 45.8274 2.68813 45.826 3.63491C45.8274 4.58168 46.2041 5.48928 46.8736 6.15875C47.543 6.82822 48.4506 7.20496 49.3974 7.20638C50.3442 7.20496 51.2518 6.82822 51.9212 6.15875C52.5907 5.48928 52.9674 4.58168 52.9689 3.63491C52.9674 2.68813 52.5907 1.78053 51.9212 1.11106C51.2518 0.441586 50.3442 0.0648513 49.3974 0.0634322ZM73.2673 21.0022L69.5725 9.41324H63.0698L70.3361 28.1236L67.5158 35.7851H73.4032L83.776 9.46334H77.4808L73.2691 21.004M11.0914 24.1068C9.06696 24.2284 7.15694 23.0964 6.32354 21.2526C5.49014 19.4087 5.84066 17.2357 7.24636 15.7728C8.65205 14.3099 10.8124 13.8593 12.6831 14.6372C13.5986 15.0178 14.3783 15.6653 14.9206 16.4953C15.4629 17.3253 15.7426 18.2994 15.7234 19.2906C15.7384 19.9118 15.6301 20.5297 15.4049 21.1088C15.1797 21.6878 14.842 22.2165 14.4114 22.6643C13.9807 23.1121 13.4656 23.4701 12.8957 23.7177C12.3259 23.9653 11.7127 24.0976 11.0914 24.1068ZM19.7867 19.3282C19.7739 17.199 20.313 15.1028 21.3516 13.244V1.75169L15.5034 3.0036V11.6238C14.8404 10.7871 13.9868 10.1213 13.0139 9.68198C12.041 9.24267 10.9771 9.0426 9.91108 9.09849C7.42162 9.08418 5.03231 10.075 3.28503 11.8455C2.27273 12.7909 1.46677 13.9354 0.917727 15.207C0.368685 16.4787 0.0884127 17.8501 0.0945001 19.2352C0.0600766 20.7192 0.354787 22.1924 0.95746 23.549C1.56013 24.9055 2.4558 26.1117 3.58011 27.0809C5.27959 28.6251 7.50434 29.4624 9.80021 29.422C10.8917 29.4722 11.9813 29.2891 12.9964 28.8851C14.0116 28.4812 14.9291 27.8655 15.6877 27.0792V29.3093H21.3533V25.5411C20.3161 23.6544 19.7795 21.5351 19.7885 19.3818M114.801 13.8521C114.617 12.8701 114.193 11.9487 113.567 11.1695C112.986 10.5401 112.284 10.0337 111.504 9.6804C110.723 9.32712 109.88 9.13409 109.023 9.11279C107.612 8.97377 106.192 9.26033 104.945 9.9355C103.865 10.6198 102.883 11.4483 102.027 12.3981C100.939 10.4309 98.8666 9.21472 96.6204 9.22009C95.5086 9.15298 94.4005 9.4019 93.4242 9.93801C92.4479 10.4741 91.6432 11.2755 91.1031 12.2497V9.47764H85.8095V29.3576H91.3643V18.8882C91.3643 16.7064 91.8686 14.5532 94.8123 14.5532C97.3519 14.5532 97.5486 16.6223 97.5486 18.3338V29.4184H103.271V18.8256C103.271 15.4634 104.738 14.5335 106.745 14.5335C108.354 14.5335 109.454 15.2596 109.454 18.3142V29.3988H115.177V25.5429C114.148 23.6537 113.614 21.5348 113.625 19.3836C113.613 17.4785 114.034 15.5955 114.857 13.8771M146.512 1.81249L140.587 3.0644V9.60464H138.124V15.3561H140.587V29.3594H146.512V15.3293H149.148V9.57779H146.512V1.83039M154.613 7.19563C156.044 7.20099 157.367 6.3318 157.922 4.99586C158.192 4.34259 158.262 3.62405 158.124 2.9309C157.985 2.23776 157.645 1.60112 157.145 1.10134C156.645 0.601561 156.009 0.261062 155.315 0.122813C154.622 -0.015436 153.904 0.0547328 153.25 0.324533C151.914 0.861057 151.045 2.18807 151.051 3.6331C151.055 4.57554 151.432 5.47804 152.098 6.14445C152.765 6.81087 153.667 7.18738 154.61 7.19208M157.525 14.3028V9.46154H151.773V29.3415H157.586V24.5986C156.872 22.9548 156.508 21.1809 156.514 19.389C156.517 17.6377 156.883 15.906 157.587 14.3028M193.177 9.09134C190.855 8.9429 188.652 10.1161 187.454 12.1209L187.525 9.45974H181.971V29.3397H187.693V18.5377C187.693 15.8766 188.945 14.5102 191.204 14.5102C193.463 14.5102 194.062 15.7621 194.062 18.5377V29.3147H199.91V16.2343C199.91 11.6774 197.236 9.08954 193.136 9.08954" fill="white" fill-opacity="0.65"/>
<path id="Vector_2" d="M170.091 24.3472C172.101 24.4365 173.965 23.2964 174.798 21.4666C175.632 19.6368 175.267 17.4817 173.875 16.0289C172.484 14.5761 170.352 14.1115 168.482 14.8584C167.568 15.223 166.785 15.8529 166.233 16.6668C165.682 17.4807 165.387 18.4412 165.388 19.4241C165.355 20.7018 165.835 21.9384 166.716 22.864C167.153 23.3218 167.677 23.6886 168.256 23.9431C168.836 24.1977 169.46 24.335 170.093 24.3472H170.091ZM162.639 12.1012C164.093 10.633 165.948 9.6264 167.972 9.20744C169.996 8.78847 172.098 8.97583 174.016 9.74601C175.934 10.5162 177.582 11.8349 178.753 13.5369C179.923 15.2388 180.565 17.2483 180.598 19.3133C180.636 20.697 180.39 22.0737 179.875 23.3587C179.36 24.6437 178.588 25.8096 177.604 26.7846C176.622 27.7868 175.447 28.5787 174.148 29.1121C172.85 29.6454 171.457 29.909 170.054 29.8868C168.645 29.9259 167.244 29.6627 165.946 29.115C164.648 28.5672 163.482 27.7475 162.528 26.7113C160.632 24.7492 159.581 22.1189 159.609 19.3884C159.603 18.0336 159.868 16.6912 160.388 15.4401C160.908 14.189 161.674 13.0544 162.639 12.103M127.228 24.3472C129.238 24.4365 131.102 23.2964 131.935 21.4666C132.769 19.6368 132.404 17.4817 131.013 16.0289C129.621 14.5761 127.489 14.1115 125.619 14.8584C124.705 15.223 123.922 15.8529 123.37 16.6668C122.819 17.4807 122.524 18.4412 122.525 19.4241C122.494 20.7 122.972 21.9366 123.857 22.8604C124.742 23.7843 125.951 24.3186 127.228 24.3472ZM119.839 12.1012C121.294 10.6457 123.146 9.65014 125.164 9.23847C127.182 8.8268 129.276 9.0172 131.186 9.78593C133.096 10.5547 134.738 11.8678 135.907 13.5618C137.076 15.2559 137.72 17.2561 137.76 19.3133C137.832 22.1117 136.746 24.8172 134.756 26.7828C133.776 27.7876 132.6 28.5812 131.302 29.1147C130.003 29.6482 128.609 29.9103 127.205 29.885C125.798 29.9223 124.4 29.6583 123.104 29.1106C121.808 28.5629 120.645 27.7442 119.692 26.7096C117.79 24.7478 116.738 22.1174 116.761 19.3866C116.753 18.0306 117.018 16.6869 117.54 15.4353C118.062 14.1837 118.831 13.0499 119.801 12.1012M56.1568 29.331H61.9584V1.82434L56.1568 3.07523V29.3507M47.2773 29.3489H53.0897V9.46538H47.2773V29.3489Z" fill="white" fill-opacity="0.65"/>
<path id="Vector_3" d="M33.9598 24.148C35.2117 24.1301 36.4028 23.6119 37.2684 22.7095C38.134 21.8071 38.6061 20.5973 38.5775 19.35C38.6006 18.701 38.4924 18.0541 38.2593 17.448C38.0262 16.8418 37.6731 16.2889 37.221 15.8224C36.769 15.3558 36.2274 14.9853 35.6286 14.7329C35.0298 14.4805 34.3862 14.3515 33.7363 14.3536C31.0179 14.4144 28.8593 16.6678 28.9201 19.3875C28.9809 22.1073 31.2361 24.2605 33.9581 24.1998L33.9598 24.148ZM38.5417 27.15C37.0037 28.7333 34.8576 29.5803 32.6543 29.4767C30.3607 29.5169 28.1375 28.6853 26.4342 27.15C24.2774 25.2291 23.0183 22.495 22.9647 19.6091C22.911 16.7231 24.0592 13.9444 26.1391 11.9395C27.8918 10.1775 30.2793 9.19291 32.7652 9.20542C33.8263 9.13924 34.8878 9.32814 35.8608 9.75626C36.8338 10.1844 37.69 10.8392 38.3575 11.666V9.45022H44.2056V29.3265H38.54V27.1464" fill="white" fill-opacity="0.65"/>
</g>
</svg>
