<svg width="720" height="720" viewBox="0 0 720 720" fill="none" xmlns="http://www.w3.org/2000/svg">
<path d="M17.4076 157.437C8.8828 157.438 2 164.349 2 172.874V431.622C2 440.147 8.88315 447.058 17.4079 447.059C106.745 447.067 467.719 447.059 546.383 447.057C554.909 447.057 561.567 440.145 561.567 431.619V172.877C561.567 164.351 554.909 157.439 546.383 157.439C467.718 157.437 106.737 157.429 17.4076 157.437Z" fill="#10162F"/>
<path d="M20.3854 151.1C14.2962 151.101 9.57678 156.038 9.57678 162.127V429.695C9.57678 435.785 14.2265 440.721 20.3157 440.722C99.9887 440.728 488.423 440.722 558.349 440.72C564.439 440.72 569.144 435.783 569.144 429.693V162.027C569.144 155.937 564.504 151 558.414 151C476.24 151.007 90.1201 151.086 20.3854 151.1Z" fill="white" stroke="#10162F" stroke-width="1.2"/>
<path d="M20.3934 151.102C14.3042 151.102 9.66516 156.039 9.66516 162.128V183.386H569.232V162.13C569.232 156.04 564.51 151.103 558.42 151.103C488.699 151.101 102.837 151.093 20.3934 151.102Z" fill="#3A10E5" stroke="#10162F" stroke-width="1.2"/>
<path fill-rule="evenodd" clip-rule="evenodd" d="M25.6091 162.329C26.4267 161.818 27.4487 161.512 28.3686 161.512C29.6972 161.512 31.0259 162.023 31.9457 162.943C32.8655 163.862 33.3766 165.191 33.3766 166.52C33.3766 167.542 33.07 168.462 32.5589 169.279C32.0479 170.097 31.2303 170.71 30.3104 171.119C29.3906 171.528 28.3686 171.63 27.4487 171.426C26.4267 171.221 25.6091 170.71 24.8936 170.097C24.1782 169.381 23.6672 168.462 23.565 167.542C23.3606 166.52 23.4628 165.6 23.8716 164.68C24.1782 163.658 24.7914 162.84 25.6091 162.329Z" fill="#FFF0E5"/>
<path fill-rule="evenodd" clip-rule="evenodd" d="M42.2684 162.329C43.0861 161.818 44.1081 161.512 45.028 161.512C45.6412 161.512 46.3566 161.614 46.9698 161.921C47.5831 162.125 48.0941 162.534 48.6051 163.045C49.1161 163.556 49.4227 164.067 49.7293 164.68C49.9337 165.293 50.1382 165.906 50.1382 166.622C50.1382 167.644 49.8315 168.564 49.3205 169.381C48.8095 170.199 47.9919 170.812 47.072 171.221C46.1522 171.63 45.1302 171.732 44.2103 171.528C43.1883 171.323 42.3707 170.812 41.6552 170.199C40.9398 169.484 40.4288 168.564 40.3266 167.644C40.1222 166.622 40.2244 165.702 40.6332 164.782C40.8376 163.658 41.4508 162.84 42.2684 162.329Z" fill="#FFF0E5"/>
<path fill-rule="evenodd" clip-rule="evenodd" d="M58.519 162.329C59.3366 161.818 60.3586 161.512 61.2785 161.512C62.6071 161.512 63.9358 162.023 64.8556 162.943C65.7755 163.862 66.2865 165.191 66.2865 166.52C66.2865 167.542 65.9799 168.462 65.4688 169.279C64.9578 170.097 64.1402 170.71 63.2204 171.119C62.3005 171.528 61.2785 171.63 60.3586 171.426C59.3366 171.221 58.519 170.71 57.8035 170.097C57.0881 169.381 56.5771 168.462 56.4749 167.542C56.2705 166.52 56.3727 165.6 56.7815 164.68C57.0881 163.658 57.7013 162.84 58.519 162.329Z" fill="#FFF0E5"/>
<path d="M404.275 217.047V407.77" stroke="#10162F" stroke-width="1.2" stroke-linecap="round" stroke-linejoin="round"/>
<path d="M218.63 411.711H54.4905C54.0816 411.711 53.775 411.404 53.775 410.995V220.794C53.775 220.385 54.0816 220.078 54.4905 220.078H218.63C219.039 220.078 219.346 220.385 219.346 220.794V410.995C219.346 411.302 219.039 411.711 218.63 411.711Z" fill="#10162F" stroke="#10162F" stroke-width="1.2"/>
<path d="M221.492 408.644H57.4542C57.0454 408.644 56.7388 408.338 56.7388 407.929V217.727C56.7388 217.318 57.0454 217.012 57.4542 217.012H221.594C222.003 217.012 222.309 217.318 222.309 217.727V407.929C222.207 408.235 221.9 408.644 221.492 408.644Z" fill="#FFF0E5" stroke="#10162F" stroke-width="1.2"/>
<path d="M524.834 217.008H241.218V408.232H524.834V217.008Z" fill="#66C4FF" stroke="#10162F" stroke-width="1.2"/>
<path d="M502.424 255.95C505.323 255.95 507.672 253.6 507.672 250.701C507.672 247.803 505.323 245.453 502.424 245.453C499.525 245.453 497.176 247.803 497.176 250.701C497.176 253.6 499.525 255.95 502.424 255.95Z" fill="#10162F" stroke="#10162F" stroke-width="1.2" stroke-miterlimit="10"/>
<path d="M443.911 318.474C436.022 318.486 432.837 312.9 436.836 306.063L449.86 283.816C453.871 276.979 458.875 277.22 460.994 284.358C463.113 291.497 468.523 292.014 473.037 285.49L484.194 269.371C488.707 262.858 493.747 263.869 495.399 271.634L502.342 304.257C503.994 312.022 498.882 318.378 490.993 318.39L443.911 318.462V318.474Z" fill="white" stroke="#10162F" stroke-width="1.2"/>
<path d="M348.225 330.248H264.315C261.863 330.248 259.818 328.204 259.818 325.751C259.818 323.298 261.863 321.254 264.315 321.254H348.225C350.678 321.254 352.722 323.298 352.722 325.751C352.722 328.306 350.78 330.248 348.225 330.248Z" fill="#10162F" stroke="#10162F" stroke-width="1.2"/>
<path d="M264.315 264.531H314.498C316.951 264.531 318.995 266.575 318.995 269.028C318.995 271.481 316.951 273.525 314.498 273.525H264.315C261.863 273.525 259.818 271.481 259.818 269.028C259.818 266.575 261.863 264.531 264.315 264.531Z" fill="#10162F" stroke="#10162F" stroke-width="1.2"/>
<path d="M264.315 245.52H390.844C393.297 245.52 395.341 247.564 395.341 250.017C395.341 252.469 393.297 254.514 390.844 254.514H264.315C261.863 254.514 259.818 252.469 259.818 250.017C259.818 247.461 261.863 245.52 264.315 245.52Z" fill="#10162F" stroke="#10162F" stroke-width="1.2"/>
<path d="M264.315 264.531H314.498C316.951 264.531 318.995 266.575 318.995 269.028C318.995 271.481 316.951 273.525 314.498 273.525H264.315C261.863 273.525 259.818 271.481 259.818 269.028C259.818 266.575 261.863 264.531 264.315 264.531Z" stroke="#10162F" stroke-width="1.2"/>
<path d="M277.806 302.449H373.776C376.229 302.449 378.273 304.493 378.273 306.946C378.273 309.399 376.229 311.443 373.776 311.443H277.806C275.354 311.443 273.309 309.399 273.309 306.946C273.207 304.493 275.251 302.449 277.806 302.449Z" fill="#10162F" stroke="#10162F" stroke-width="1.2"/>
<path d="M264.315 283.645H325.536C327.989 283.645 330.033 285.689 330.033 288.142C330.033 290.594 327.989 292.638 325.536 292.638H264.315C261.863 292.638 259.818 290.594 259.818 288.142C259.818 285.689 261.863 283.645 264.315 283.645Z" fill="#66C4FF" stroke="#10162F" stroke-width="1.2"/>
<path d="M330.748 264.531H385.019C387.472 264.531 389.516 266.575 389.516 269.028C389.516 271.481 387.472 273.525 385.019 273.525H330.748C328.296 273.525 326.251 271.481 326.251 269.028C326.251 266.575 328.296 264.531 330.748 264.531Z" fill="#66C4FF" stroke="#10162F" stroke-width="1.2"/>
<path d="M340.151 283.645H387.778C390.231 283.645 392.275 285.689 392.275 288.142C392.275 290.594 390.231 292.638 387.778 292.638H340.049C337.596 292.638 335.552 290.594 335.552 288.142C335.552 285.689 337.596 283.645 340.151 283.645Z" fill="#10162F" stroke="#10162F" stroke-width="1.2"/>
<path d="M418.385 216.836V407.164" stroke="#10162F" stroke-width="1.2"/>
<path d="M348.225 330.248H264.315C261.863 330.248 259.818 328.204 259.818 325.751C259.818 323.298 261.863 321.254 264.315 321.254H348.225C350.678 321.254 352.722 323.298 352.722 325.751C352.722 328.306 350.78 330.248 348.225 330.248Z" stroke="#10162F" stroke-width="1.2"/>
<path d="M397.079 330.248H362.841C360.388 330.248 358.344 328.204 358.344 325.751C358.344 323.298 360.388 321.254 362.841 321.254H397.079C399.532 321.254 401.576 323.298 401.576 325.751C401.576 328.306 399.532 330.248 397.079 330.248Z" fill="#66C4FF" stroke="#10162F" stroke-width="1.2"/>
<path d="M390.947 348.439H329.726C327.274 348.439 325.229 346.395 325.229 343.942C325.229 341.489 327.274 339.445 329.726 339.445H390.947C393.4 339.445 395.444 341.489 395.444 343.942C395.444 346.497 393.4 348.439 390.947 348.439Z" fill="#10162F" stroke="#10162F" stroke-width="1.2"/>
<path d="M324.514 367.549H270.244C267.791 367.549 265.747 365.505 265.747 363.052C265.747 360.599 267.791 358.555 270.244 358.555H324.514C326.967 358.555 329.011 360.599 329.011 363.052C329.011 365.505 326.967 367.549 324.514 367.549Z" fill="#66C4FF" stroke="#10162F" stroke-width="1.2"/>
<path d="M315.111 348.439H267.382C264.929 348.439 262.885 346.395 262.885 343.942C262.885 341.489 264.929 339.445 267.382 339.445H315.111C317.564 339.445 319.608 341.489 319.608 343.942C319.608 346.497 317.666 348.439 315.111 348.439Z" fill="#10162F" stroke="#10162F" stroke-width="1.2"/>
<path d="M180.712 254.008H77.6907C75.9532 254.008 74.5223 252.578 74.5223 250.84V242.153C74.5223 240.415 75.9532 238.984 77.6907 238.984H180.712C182.45 238.984 183.881 240.415 183.881 242.153V250.84C183.983 252.578 182.552 254.008 180.712 254.008Z" fill="#10162F" stroke="#10162F" stroke-width="1.2"/>
<path d="M74.5225 355.395H202.073" stroke="#10162F" stroke-width="1.2" stroke-linecap="round" stroke-linejoin="round"/>
<path d="M74.5225 371.441H202.073" stroke="#10162F" stroke-width="1.2" stroke-linecap="round" stroke-linejoin="round"/>
<path d="M74.5225 323.406H202.073" stroke="#10162F" stroke-width="1.2" stroke-linecap="round" stroke-linejoin="round"/>
<path d="M74.5225 339.348H202.073" stroke="#10162F" stroke-width="1.2" stroke-linecap="round" stroke-linejoin="round"/>
<path d="M74.5225 307.359H202.073" stroke="#10162F" stroke-width="1.2" stroke-linecap="round" stroke-linejoin="round"/>
<path d="M74.5223 275.367H202.073" stroke="#10162F" stroke-width="1.2" stroke-linecap="round" stroke-linejoin="round"/>
<path d="M74.5223 291.312H202.073" stroke="#10162F" stroke-width="1.2" stroke-linecap="round" stroke-linejoin="round"/>
<path d="M74.5225 387.488H175.909" stroke="#10162F" stroke-width="1.2" stroke-linecap="round" stroke-linejoin="round"/>
<path d="M717 345.637H716.816V341.139C716.816 336.622 713.947 332.965 710.403 332.965H435.845C432.301 332.965 429.433 336.622 429.433 341.139V345.637H429.412V530.959C429.412 535.477 432.28 539.134 435.825 539.134H710.587C714.132 539.134 717 535.477 717 530.959V345.637Z" fill="#3A10E5" stroke="#10162F" stroke-width="1.2" stroke-miterlimit="10"/>
<path d="M704.206 500.226V371.87C689.608 371.87 677.766 360.181 677.766 345.758H469.856C469.856 360.181 458.024 371.87 443.416 371.87C443.006 371.87 442.607 371.829 442.207 371.808V500.287C442.607 500.267 443.006 500.226 443.416 500.226C458.014 500.226 469.856 511.914 469.856 526.338H677.777C677.777 511.914 689.608 500.226 704.216 500.226H704.206Z" fill="#FFF0E5" stroke="#10162F" stroke-width="1.2" stroke-miterlimit="10"/>
<path d="M662.84 569.235L651.817 552.209L632.497 558.376L649.082 512.043L679.425 522.912L662.84 569.235Z" fill="#10162F" stroke="#10162F" stroke-width="1.2" stroke-miterlimit="10"/>
<path d="M680.756 569.235L691.779 552.209L711.099 558.376L694.514 512.043L664.172 522.912L680.756 569.235Z" fill="#10162F" stroke="#10162F" stroke-width="1.2" stroke-miterlimit="10"/>
<path d="M711.642 493.264C711.642 496.071 705.199 498.13 704.605 500.752C703.99 503.467 708.887 508.107 707.709 510.556C706.51 513.045 699.821 512.092 698.11 514.233C696.389 516.384 698.797 522.695 696.645 524.416C694.494 526.137 688.891 522.377 686.401 523.586C683.953 524.764 683.39 531.504 680.665 532.119C677.94 532.734 674.611 526.905 671.804 526.905C668.997 526.905 665.565 532.713 662.943 532.119C660.32 531.525 659.665 524.764 657.206 523.586C654.748 522.408 649.103 526.126 646.962 524.416C644.811 522.695 647.218 516.384 645.508 514.233C643.797 512.092 637.108 513.045 635.909 510.556C634.711 508.066 639.628 503.467 639.013 500.752C638.419 498.119 631.975 496.071 631.975 493.264C631.975 490.457 638.419 488.398 639.013 485.776C639.628 483.061 634.731 478.42 635.909 475.972C637.087 473.524 643.797 474.436 645.508 472.295C647.229 470.143 644.821 463.833 646.973 462.112C649.124 460.391 654.727 464.151 657.216 462.942C659.665 461.764 660.228 455.023 662.953 454.409C665.678 453.794 669.007 459.623 671.814 459.623C674.621 459.623 678.053 453.815 680.675 454.409C683.298 455.003 683.953 461.764 686.412 462.942C688.87 464.12 694.515 460.401 696.656 462.112C698.807 463.833 696.399 470.143 698.11 472.295C699.821 474.446 706.51 473.483 707.709 475.972C708.887 478.42 703.99 483.061 704.605 485.776C705.199 488.408 711.642 490.457 711.642 493.264Z" fill="#10162F"/>
<path d="M711.642 493.264C711.642 496.071 705.199 498.13 704.605 500.752C703.99 503.467 708.887 508.107 707.709 510.556C706.51 513.045 699.821 512.092 698.11 514.233C696.389 516.384 698.797 522.695 696.645 524.416C694.494 526.137 688.891 522.377 686.401 523.586C683.953 524.764 683.39 531.504 680.665 532.119C677.94 532.734 674.611 526.905 671.804 526.905C668.997 526.905 665.565 532.713 662.943 532.119C660.32 531.525 659.665 524.764 657.206 523.586C654.748 522.408 649.103 526.126 646.962 524.416C644.811 522.695 647.218 516.384 645.508 514.233C643.797 512.092 637.108 513.045 635.909 510.556C634.711 508.066 639.628 503.467 639.013 500.752C638.419 498.119 631.975 496.071 631.975 493.264C631.975 490.457 638.419 488.398 639.013 485.776C639.628 483.061 634.731 478.42 635.909 475.972C637.087 473.524 643.797 474.436 645.508 472.295C647.229 470.143 644.821 463.833 646.973 462.112C649.124 460.391 654.727 464.151 657.216 462.942C659.665 461.764 660.228 455.023 662.953 454.409C665.678 453.794 669.007 459.623 671.814 459.623C674.621 459.623 678.053 453.815 680.675 454.409C683.298 455.003 683.953 461.764 686.412 462.942C688.87 464.12 694.515 460.401 696.656 462.112C698.807 463.833 696.399 470.143 698.11 472.295C699.821 474.446 706.51 473.483 707.709 475.972C708.887 478.42 703.99 483.061 704.605 485.776C705.199 488.408 711.642 490.457 711.642 493.264Z" stroke="#10162F" stroke-width="1.2" stroke-miterlimit="10"/>
<path d="M671.793 519.915C686.514 519.915 698.448 507.981 698.448 493.26C698.448 478.539 686.514 466.605 671.793 466.605C657.072 466.605 645.138 478.539 645.138 493.26C645.138 507.981 657.072 519.915 671.793 519.915Z" fill="#FFF0E5" stroke="#10162F" stroke-width="1.2" stroke-miterlimit="10"/>
<path d="M671.795 512.871C682.629 512.871 691.412 504.088 691.412 493.254C691.412 482.42 682.629 473.637 671.795 473.637C660.96 473.637 652.177 482.42 652.177 493.254C652.177 504.088 660.96 512.871 671.795 512.871Z" fill="#FFD300" stroke="#10162F" stroke-width="1.2" stroke-miterlimit="10"/>
<path d="M515.819 384.93H636.226" stroke="#10162F" stroke-width="1.2" stroke-miterlimit="10"/>
<path d="M464.222 411.965H680.461" stroke="#10162F" stroke-width="1.2" stroke-miterlimit="10"/>
<path d="M464.222 427.938H680.461" stroke="#10162F" stroke-width="1.2" stroke-miterlimit="10"/>
<path d="M464.222 443.906H603.058" stroke="#10162F" stroke-width="1.2" stroke-miterlimit="10"/>
<rect x="2" y="474.551" width="399.624" height="67.2464" rx="11.0271" fill="#FFF0E5"/>
<path d="M310.616 504.926C308.257 504.926 306.407 506.492 306.407 508.511C306.407 510.524 308.257 512.075 310.616 512.075C312.974 512.075 314.846 510.524 314.846 508.511C314.846 506.492 312.974 504.926 310.616 504.926ZM310.616 514.48C306.913 514.48 303.991 511.879 303.991 508.511C303.991 505.15 306.913 502.513 310.616 502.513C314.335 502.513 317.243 505.15 317.243 508.511C317.243 511.879 314.335 514.48 310.616 514.48Z" fill="#10162F"/>
<path d="M334.312 514.48C332.973 514.48 331.901 513.381 331.901 512.034V507.058C331.901 505.868 330.874 504.926 329.587 504.926C328.331 504.926 327.315 505.868 327.315 507.058V514.48C325.984 514.48 324.899 513.412 324.899 512.075V507.058C324.899 505.868 323.877 504.926 322.596 504.926C321.339 504.926 320.307 505.868 320.307 507.058V512.045C320.307 513.381 319.235 514.48 317.896 514.48V507.058C317.896 504.548 320.003 502.513 322.596 502.513C324.001 502.513 325.252 503.09 326.103 504.023C326.95 503.09 328.21 502.513 329.587 502.513C332.2 502.513 334.312 504.548 334.312 507.058V514.48Z" fill="#10162F"/>
<path d="M342.151 514.463C341.518 514.463 340.911 514.41 340.359 514.289C339.108 513.941 338.379 512.632 338.699 511.387C338.754 511.229 338.796 511.078 338.851 510.953L338.878 510.926C339.552 511.668 340.654 512.047 342.151 512.047C344.346 512.047 346.088 510.498 346.088 508.54C346.088 506.497 344.346 504.898 342.151 504.898C340.06 504.898 337.978 506.052 337.978 508.59V516.396C337.978 517.707 336.871 518.754 335.557 518.754V508.59C335.557 505.088 338.326 502.49 342.151 502.49C343.824 502.49 345.398 503.125 346.61 504.23C347.808 505.342 348.488 506.889 348.488 508.54C348.488 511.862 345.707 514.463 342.151 514.463Z" fill="#10162F"/>
<path d="M359.334 500.227H354.17V514.48H354.065C352.787 514.48 351.765 513.381 351.765 512.075V500.227H346.601C345.298 500.227 344.252 499.147 344.252 497.838H361.717C361.717 499.147 360.67 500.227 359.334 500.227Z" fill="#10162F"/>
<path d="M374.613 500.343L371.195 507.859H377.656L374.204 500.307L374.613 500.343ZM379.962 512.978L378.686 510.228H370.115L368.861 513.056C368.262 514.185 366.674 514.527 365.465 514.527L372.437 499.23C372.84 498.357 373.542 497.841 374.351 497.841C375.149 497.841 375.878 498.357 376.275 499.23L383.168 514.337C381.87 514.461 380.459 514.074 379.962 512.978Z" fill="#10162F"/>
<path d="M301.286 502.337C299.982 500.959 298.077 500.048 295.965 500.048C292.231 500.048 289.188 502.762 289.188 506.112C289.188 509.453 292.231 512.184 295.965 512.184C297.746 512.184 299.43 511.502 300.706 510.422C301.598 509.702 302.901 509.743 303.749 510.469C303.1 511.48 302.222 512.35 301.136 513.034C299.615 514.012 297.828 514.512 295.965 514.512C290.92 514.512 286.833 510.734 286.833 506.112C286.833 501.467 290.92 497.684 295.965 497.684C299.557 497.684 302.821 499.653 304.262 502.666C303.348 503.268 302.062 503.19 301.286 502.337Z" fill="#10162F"/>
<path d="M384.554 512.531C384.527 512.55 384.48 512.578 384.441 512.589C384.441 512.589 384.516 512.672 384.756 512.967L384.715 512.995C384.612 513.089 384.447 513.069 384.369 512.978C384.102 512.652 384.082 512.628 384.082 512.628H383.773V512.531C383.795 512.423 383.886 512.321 384.008 512.321H384.165C384.267 512.321 384.347 512.299 384.402 512.271C384.441 512.258 384.447 512.222 384.447 512.169C384.447 512.136 384.447 512.039 384.165 512.039H383.745V512.824C383.745 512.956 383.635 513.056 383.497 513.056H383.444V511.948C383.444 511.83 383.558 511.747 383.676 511.733H384.165C384.703 511.733 384.756 512.039 384.756 512.169C384.756 512.34 384.679 512.451 384.554 512.531ZM384.088 511.553C383.538 511.553 383.08 511.943 383.08 512.429C383.08 512.912 383.538 513.304 384.088 513.304C384.64 513.304 385.104 512.912 385.104 512.429C385.104 511.943 384.64 511.553 384.088 511.553ZM384.088 513.566C383.381 513.566 382.818 513.056 382.818 512.429C382.818 511.805 383.381 511.28 384.088 511.28C384.784 511.28 385.347 511.805 385.347 512.429C385.347 513.056 384.784 513.566 384.088 513.566Z" fill="#10162F"/>
<path d="M362.476 497.844V512.153C362.476 513.434 363.591 514.48 364.884 514.48V500.185C364.884 498.904 363.782 497.844 362.476 497.844Z" fill="#10162F"/>
<path d="M78.4124 498.703V517.206H75.2V502.686H75.1572L69.4176 517.206H67.276L61.408 502.686H61.3652V517.206H58.4098V498.703H63.0357L68.3468 512.409H68.4325L74.0435 498.703H78.4124ZM81.068 500.116C81.068 499.602 81.2393 499.174 81.6248 498.831C82.0103 498.488 82.4386 498.317 82.9526 498.317C83.5094 498.317 83.9806 498.488 84.3232 498.831C84.6659 499.174 84.88 499.602 84.88 500.116C84.88 500.63 84.7087 501.058 84.3232 501.401C83.9377 501.744 83.5094 501.915 82.9526 501.915C82.3958 501.915 81.9675 501.744 81.6248 501.401C81.2821 501.016 81.068 500.587 81.068 500.116ZM84.5374 503.928V517.206H81.4106V503.928H84.5374ZM94.0033 514.936C94.4744 514.936 94.9884 514.85 95.5452 514.593C96.1021 514.379 96.616 514.079 97.0872 513.737V516.649C96.5732 516.949 96.0164 517.163 95.3739 517.292C94.7314 517.42 94.0461 517.506 93.2751 517.506C91.3049 517.506 89.7201 516.906 88.5208 515.664C87.2786 514.422 86.679 512.837 86.679 510.953C86.679 508.811 87.3215 507.055 88.5636 505.684C89.8057 504.314 91.5619 503.628 93.8748 503.628C94.4744 503.628 95.0741 503.714 95.6309 503.843C96.2306 503.971 96.7017 504.185 97.0444 504.357V507.355C96.5732 507.012 96.0592 506.712 95.5881 506.541C95.0741 506.37 94.5601 506.241 94.0461 506.241C92.804 506.241 91.8188 506.627 91.0479 507.44C90.2769 508.254 89.9342 509.325 89.9342 510.696C89.9342 512.023 90.3197 513.094 91.0479 513.822C91.776 514.551 92.7612 514.936 94.0033 514.936ZM105.953 503.714C106.21 503.714 106.425 503.714 106.639 503.757C106.853 503.8 107.024 503.843 107.153 503.885V507.055C106.981 506.926 106.767 506.798 106.425 506.712C106.082 506.627 105.739 506.541 105.268 506.541C104.497 506.541 103.855 506.884 103.341 507.526C102.827 508.169 102.527 509.154 102.527 510.524V517.206H99.4001V503.928H102.527V506.027H102.57C102.87 505.299 103.298 504.742 103.855 504.314C104.454 503.928 105.14 503.714 105.953 503.714ZM107.324 510.781C107.324 508.597 107.967 506.841 109.166 505.556C110.408 504.271 112.121 503.628 114.306 503.628C116.362 503.628 117.989 504.228 119.146 505.47C120.302 506.712 120.902 508.383 120.902 510.481C120.902 512.623 120.259 514.336 119.06 515.621C117.818 516.906 116.147 517.549 114.006 517.549C111.95 517.549 110.322 516.949 109.123 515.75C107.924 514.508 107.324 512.837 107.324 510.781ZM110.579 510.653C110.579 512.023 110.879 513.094 111.522 513.822C112.164 514.551 113.064 514.936 114.22 514.936C115.334 514.936 116.233 514.593 116.833 513.822C117.432 513.094 117.732 512.023 117.732 510.567C117.732 509.154 117.432 508.083 116.833 507.312C116.233 506.584 115.334 506.198 114.263 506.198C113.106 506.198 112.25 506.584 111.607 507.355C110.879 508.169 110.579 509.239 110.579 510.653ZM125.571 507.44C125.571 507.869 125.699 508.254 125.999 508.511C126.299 508.768 126.898 509.068 127.883 509.454C129.126 509.968 130.025 510.524 130.496 511.124C131.01 511.766 131.267 512.495 131.267 513.394C131.267 514.636 130.796 515.621 129.811 516.392C128.869 517.163 127.541 517.506 125.913 517.506C125.356 517.506 124.757 517.42 124.071 517.292C123.386 517.163 122.829 516.992 122.358 516.778V513.694C122.915 514.079 123.557 514.422 124.2 514.636C124.842 514.85 125.442 514.979 125.999 514.979C126.684 514.979 127.241 514.893 127.541 514.679C127.883 514.465 128.055 514.165 128.055 513.694C128.055 513.266 127.883 512.923 127.541 512.58C127.198 512.28 126.513 511.938 125.571 511.552C124.414 511.081 123.6 510.524 123.129 509.925C122.658 509.325 122.401 508.554 122.401 507.612C122.401 506.412 122.872 505.427 123.814 504.656C124.757 503.885 125.999 503.5 127.498 503.5C127.969 503.5 128.483 503.543 129.04 503.671C129.597 503.8 130.111 503.928 130.496 504.057V507.098C130.068 506.841 129.597 506.584 129.04 506.37C128.483 506.155 127.926 506.07 127.412 506.07C126.813 506.07 126.342 506.198 126.042 506.412C125.742 506.712 125.571 507.012 125.571 507.44ZM132.595 510.781C132.595 508.597 133.238 506.841 134.437 505.556C135.679 504.271 137.392 503.628 139.577 503.628C141.633 503.628 143.26 504.228 144.417 505.47C145.573 506.712 146.173 508.383 146.173 510.481C146.173 512.623 145.53 514.336 144.331 515.621C143.089 516.906 141.418 517.549 139.277 517.549C137.221 517.549 135.593 516.949 134.394 515.75C133.238 514.508 132.595 512.837 132.595 510.781ZM135.85 510.653C135.85 512.023 136.15 513.094 136.793 513.822C137.435 514.551 138.335 514.936 139.491 514.936C140.605 514.936 141.504 514.593 142.104 513.822C142.703 513.094 143.003 512.023 143.003 510.567C143.003 509.154 142.703 508.083 142.104 507.312C141.504 506.584 140.605 506.198 139.534 506.198C138.377 506.198 137.521 506.584 136.878 507.355C136.193 508.169 135.85 509.239 135.85 510.653ZM156.581 506.498H151.912V517.206H148.743V506.498H146.515V503.928H148.743V502.086C148.743 500.716 149.214 499.559 150.113 498.66C151.013 497.76 152.169 497.332 153.583 497.332C153.968 497.332 154.311 497.375 154.611 497.375C154.911 497.375 155.168 497.461 155.382 497.546V500.245C155.296 500.202 155.082 500.116 154.825 500.03C154.568 499.945 154.268 499.902 153.925 499.902C153.283 499.902 152.769 500.116 152.426 500.502C152.084 500.887 151.912 501.53 151.912 502.301V503.885H156.581V500.887L159.708 499.945V503.885H162.877V506.455H159.708V512.666C159.708 513.48 159.879 514.037 160.136 514.379C160.436 514.722 160.907 514.893 161.55 514.893C161.721 514.893 161.935 514.85 162.192 514.765C162.449 514.679 162.663 514.593 162.835 514.465V517.035C162.62 517.163 162.321 517.249 161.849 517.335C161.378 517.42 160.95 517.463 160.479 517.463C159.151 517.463 158.166 517.12 157.523 516.435C156.881 515.75 156.538 514.679 156.538 513.266L156.581 506.498Z" fill="#10162F"/>
<path d="M32.9247 492.535H18.2761V507.184H32.9247V492.535Z" fill="#10162F"/>
<path d="M49.1153 492.535H34.4667V507.184H49.1153V492.535Z" fill="#10162F"/>
<path d="M32.9247 508.723H18.2761V523.371H32.9247V508.723Z" fill="#10162F"/>
<path d="M49.1153 508.723H34.4667V523.371H49.1153V508.723Z" fill="#10162F"/>
<path d="M210.05 503.085C210.05 503.828 210.131 504.431 210.271 504.873C210.432 505.315 210.633 505.797 210.914 506.319C211.014 506.48 211.055 506.64 211.055 506.781C211.055 506.982 210.934 507.183 210.673 507.383L209.407 508.227C209.227 508.348 209.046 508.408 208.885 508.408C208.684 508.408 208.484 508.307 208.283 508.127C208.001 507.825 207.76 507.504 207.56 507.183C207.359 506.841 207.158 506.459 206.937 505.998C205.37 507.845 203.402 508.769 201.032 508.769C199.344 508.769 197.999 508.287 197.014 507.323C196.03 506.359 195.528 505.074 195.528 503.467C195.528 501.759 196.131 500.373 197.356 499.329C198.581 498.284 200.208 497.762 202.277 497.762C202.96 497.762 203.663 497.822 204.406 497.923C205.149 498.023 205.912 498.184 206.716 498.365V496.898C206.716 495.372 206.395 494.307 205.772 493.685C205.129 493.062 204.044 492.761 202.498 492.761C201.795 492.761 201.072 492.841 200.329 493.022C199.585 493.203 198.862 493.424 198.159 493.705C197.838 493.845 197.597 493.926 197.456 493.966C197.316 494.006 197.215 494.026 197.135 494.026C196.854 494.026 196.713 493.825 196.713 493.403V492.419C196.713 492.098 196.753 491.857 196.854 491.716C196.954 491.576 197.135 491.435 197.416 491.294C198.119 490.933 198.963 490.632 199.947 490.391C200.931 490.129 201.976 490.009 203.08 490.009C205.471 490.009 207.218 490.551 208.343 491.636C209.448 492.721 210.01 494.368 210.01 496.577V503.085H210.05ZM201.895 506.138C202.558 506.138 203.241 506.018 203.964 505.777C204.687 505.536 205.33 505.094 205.872 504.491C206.194 504.109 206.435 503.688 206.555 503.206C206.676 502.723 206.756 502.141 206.756 501.458V500.614C206.174 500.474 205.551 500.353 204.908 500.273C204.265 500.193 203.643 500.152 203.02 500.152C201.674 500.152 200.69 500.414 200.027 500.956C199.364 501.498 199.043 502.261 199.043 503.266C199.043 504.21 199.284 504.913 199.786 505.395C200.268 505.897 200.971 506.138 201.895 506.138ZM218.024 508.307C217.663 508.307 217.422 508.247 217.261 508.107C217.1 507.986 216.96 507.705 216.839 507.323L212.119 491.797C211.999 491.395 211.938 491.134 211.938 490.993C211.938 490.672 212.099 490.491 212.42 490.491H214.389C214.77 490.491 215.032 490.551 215.172 490.692C215.333 490.812 215.453 491.094 215.574 491.475L218.948 504.772L222.082 491.475C222.182 491.073 222.303 490.812 222.463 490.692C222.624 490.571 222.905 490.491 223.267 490.491H224.874C225.255 490.491 225.517 490.551 225.677 490.692C225.838 490.812 225.979 491.094 226.059 491.475L229.233 504.933L232.707 491.475C232.828 491.073 232.969 490.812 233.109 490.692C233.27 490.571 233.531 490.491 233.893 490.491H235.761C236.082 490.491 236.263 490.652 236.263 490.993C236.263 491.094 236.243 491.194 236.223 491.315C236.202 491.435 236.162 491.596 236.082 491.817L231.241 507.343C231.121 507.745 230.98 508.006 230.819 508.127C230.659 508.247 230.398 508.328 230.056 508.328H228.329C227.947 508.328 227.686 508.267 227.525 508.127C227.365 507.986 227.224 507.725 227.144 507.323L224.03 494.368L220.937 507.303C220.837 507.705 220.716 507.966 220.555 508.107C220.395 508.247 220.113 508.307 219.752 508.307H218.024ZM243.835 508.85C242.791 508.85 241.746 508.729 240.742 508.488C239.738 508.247 238.954 507.986 238.432 507.685C238.111 507.504 237.89 507.303 237.809 507.122C237.729 506.942 237.689 506.741 237.689 506.56V505.536C237.689 505.114 237.849 504.913 238.151 504.913C238.271 504.913 238.392 504.933 238.512 504.973C238.633 505.013 238.814 505.094 239.014 505.174C239.697 505.475 240.441 505.716 241.224 505.877C242.027 506.038 242.811 506.118 243.614 506.118C244.88 506.118 245.864 505.897 246.547 505.455C247.23 505.013 247.591 504.371 247.591 503.547C247.591 502.985 247.411 502.523 247.049 502.141C246.687 501.759 246.004 501.418 245.02 501.096L242.108 500.193C240.641 499.731 239.557 499.048 238.894 498.144C238.231 497.26 237.89 496.276 237.89 495.231C237.89 494.388 238.07 493.645 238.432 493.002C238.794 492.359 239.276 491.797 239.878 491.355C240.481 490.893 241.164 490.551 241.967 490.31C242.771 490.069 243.614 489.969 244.498 489.969C244.94 489.969 245.402 489.989 245.844 490.049C246.306 490.109 246.728 490.19 247.149 490.27C247.551 490.37 247.933 490.471 248.294 490.591C248.656 490.712 248.937 490.832 249.138 490.953C249.419 491.114 249.62 491.274 249.74 491.455C249.861 491.616 249.921 491.837 249.921 492.118V493.062C249.921 493.484 249.761 493.705 249.459 493.705C249.299 493.705 249.037 493.624 248.696 493.464C247.551 492.942 246.266 492.68 244.839 492.68C243.695 492.68 242.791 492.861 242.168 493.243C241.545 493.624 241.224 494.207 241.224 495.03C241.224 495.593 241.425 496.075 241.827 496.457C242.228 496.838 242.971 497.22 244.036 497.561L246.888 498.465C248.334 498.927 249.379 499.57 250.002 500.393C250.624 501.217 250.926 502.161 250.926 503.206C250.926 504.069 250.745 504.853 250.403 505.536C250.042 506.218 249.56 506.821 248.937 507.303C248.314 507.805 247.571 508.167 246.707 508.428C245.804 508.709 244.86 508.85 243.835 508.85Z" fill="#10162F"/>
<path fill-rule="evenodd" clip-rule="evenodd" d="M247.631 518.612C241.023 523.493 231.422 526.084 223.166 526.084C211.597 526.084 201.172 521.806 193.298 514.695C192.676 514.133 193.238 513.37 193.981 513.812C202.498 518.753 213.003 521.746 223.869 521.746C231.201 521.746 239.255 520.219 246.667 517.086C247.772 516.584 248.716 517.809 247.631 518.612Z" fill="#10162F"/>
<path fill-rule="evenodd" clip-rule="evenodd" d="M250.383 515.479C249.54 514.394 244.799 514.957 242.65 515.218C242.007 515.298 241.907 514.736 242.49 514.314C246.266 511.662 252.472 512.426 253.195 513.309C253.919 514.213 252.995 520.42 249.459 523.393C248.917 523.855 248.395 523.614 248.636 523.011C249.439 521.023 251.227 516.543 250.383 515.479Z" fill="#10162F"/>
</svg>
