<svg width="154" height="45" viewBox="0 0 154 45" fill="none" xmlns="http://www.w3.org/2000/svg">
<path id="Vector" d="M142.864 26.6054C142.325 27.0205 139.605 28.7068 141.247 24.1408C142.12 21.6762 146.071 10.5465 143.146 8.18564C141.709 7.04414 138.758 6.23989 137.347 7.64083C135.936 9.06772 136.398 12.0512 136.398 14.3083C136.398 18.9521 134.704 23.6998 133.832 26.0347C131.83 27.7469 130.47 28.6809 129.777 28.8885C129.777 28.8885 130.932 24.53 127.75 24.6597C123.876 24.8153 122.875 29.096 121.823 29.0182C120.412 28.9144 122.028 26.0087 121.695 25.2045C121.515 24.7894 120.335 24.6078 118.461 24.6597C114.022 24.7894 114.022 28.4734 114.022 29.0182C114.022 30.6526 113.15 34.2847 112.662 37.0865C111.482 38.254 108.069 41.2894 104.708 41.2894C102.553 41.2894 99.2168 39.7328 98.9089 36.3861C98.8319 35.5559 99.3195 35.2965 99.576 35.2965C99.9866 35.2965 102.63 35.4521 105.786 33.9215C108.352 32.6762 109.84 30.7823 109.84 28.188C109.84 26.6833 109.712 23.8295 104.169 23.8295C98.4983 23.8295 93.7 26.4238 92.0321 31.4568C89.1326 28.7328 88.5938 27.0205 88.3885 26.4238C88.1062 25.5936 88.1832 24.1149 85.5659 24.1149C85.4376 24.1149 82.2045 24.1149 82.2045 27.1243C82.2045 28.2139 84.8988 29.7186 84.3599 30.938C83.7184 32.4427 81.3834 40.07 76.6877 40.07C72.5309 40.07 75.3278 32.0276 75.8666 30.2634C76.2772 29.1738 77.3292 25.3601 76.816 24.8153C76.5594 24.53 75.7383 24.4002 74.5323 24.4002C70.8886 24.4002 68.4766 28.7587 67.3989 36.8012C64.3455 39.8884 61.5999 41.445 59.1879 41.445C57.443 41.445 54.4922 41.1078 53.4401 37.7351C53.2092 36.9568 64.4481 34.4663 64.4481 28.3696C64.4481 26.6054 64.4481 24.0111 58.7773 24.0111C55.262 24.0111 52.0289 25.1007 49.7452 27.0205C48.5905 27.9804 45.5627 31.1196 45.9732 37.5276C45.6653 37.813 44.2027 38.6172 41.6624 38.6172C37.6082 38.6172 35.3245 30.9899 35.0679 29.7705C34.1185 25.2823 30.8341 24.1408 31.5525 23.6479C33.0151 22.5583 34.8883 22.8177 40.0459 19.004C43.0224 16.5394 44.6389 13.4262 44.6389 10.0017C44.6389 8.08187 43.9718 3.90499 39.2504 2.24462C36.3765 1.28471 33.3744 0.817731 30.3465 0.869617C28.1911 0.869617 20.9038 0.999334 13.8988 3.33424C4.99488 6.88848 0.427481 11.7918 0.0169282 18.5889C-0.11137 20.6385 0.350503 25.2564 6.35484 25.2564C11.8203 25.2564 14.335 20.8979 14.181 19.3932C13.5395 19.7045 10.9736 20.3012 9.94718 18.8484C7.79178 15.9168 10.0755 10.4946 14.0527 7.79649C17.3885 5.51348 20.8012 4.24225 24.0343 4.11254C23.4954 4.94273 22.0072 7.25169 21.34 9.30121C20.3906 12.0253 13.2573 36.5677 12.0513 41.8861C11.6407 43.8059 11.6407 44.7139 12.0513 44.7398C14.5916 44.9474 20.1853 45.0512 20.2623 43.7799C20.7755 36.6974 23.7777 28.1101 24.1626 25.6455C24.3165 24.6856 25.112 24.5559 25.3686 24.5559C26.0357 24.5559 26.7285 25.1007 27.1134 25.5158C28.0628 26.7352 29.0122 28.7847 28.8583 32.1833C28.73 34.9073 28.4734 44.3247 36.1456 44.3247C41.3032 44.3247 46.2811 40.7446 46.666 40.096C47.2049 41.471 49.232 44.5842 55.5699 44.5842C62.575 44.5842 67.4246 39.8106 67.5786 39.9403C67.7069 40.07 67.7325 40.3554 67.7069 40.6148C67.6555 41.7045 68.0404 44.5064 72.4282 44.4285C81.9223 44.2988 87.5161 36.5417 88.5938 31.3531C90.3643 33.2729 91.7242 33.8436 92.1091 33.9474C92.1091 35.1667 89.6971 44.5842 101.27 44.5842C105.811 44.5842 109.635 42.846 112.739 39.3955C112.508 40.6148 111.61 43.0535 112.072 44.1691C112.124 44.2988 115.562 44.1691 117.871 44.1691C118.744 44.1691 118.692 43.9875 118.744 43.7021C119.283 41.6266 118.385 36.4899 123.132 30.1337C123.645 29.4592 124.338 29.1479 124.62 29.9002C126.005 33.4026 129.598 32.1314 133.37 28.1101C132.549 31.2234 132.164 33.8955 132.164 36.1526C132.164 39.0064 132.985 44.8177 140.785 44.6101C151.408 44.3247 154 36.5677 154 30.8342C154 29.1738 152.999 24.7116 147.79 24.8413C145.43 24.8932 143.941 25.8012 142.864 26.6054ZM146.225 34.1031C145.686 37.0347 142.684 43.4427 140.426 43.2351C137.501 42.9497 138.142 37.5016 138.527 35.1927C139.066 33.0134 140.734 27.4875 144.044 27.6951C147.405 27.9026 146.764 31.2493 146.225 34.1031ZM104.323 26.1903C107.992 26.0347 106.325 30.4191 104.195 32.313C101.141 35.037 99.6274 34.7776 99.1398 34.3366C98.4983 33.7917 98.9089 32.0535 100.064 29.9262C101.27 27.721 102.322 26.2941 104.323 26.1903ZM60.9071 28.3696C61.0097 29.5889 58.6234 34.0252 52.9526 35.5818C52.3881 34.0512 53.3119 31.7163 53.902 30.6785C54.3382 29.9002 56.0831 26.4238 58.6234 26.1903C60.009 26.1125 60.7788 26.8389 60.9071 28.3696ZM31.9374 3.43801C32.4763 3.43801 33.9645 3.98282 35.1705 5.35782C35.9916 6.31772 36.9154 7.95215 36.6588 10.3908C36.3765 12.9852 35.7094 15.2941 34.76 17.0583C33.9389 18.563 32.8612 19.7823 31.6552 20.7422C29.5511 22.5583 25.0863 22.8436 24.7784 22.2469C24.4962 21.8319 24.6501 21.1573 25.3173 19.2375C26.241 16.1503 29.6794 5.8248 30.4492 4.65735C30.7058 4.11254 31.1933 3.43801 31.9374 3.43801Z" fill="white" fill-opacity="0.65"/>
</svg>
